<svg xmlns="http://www.w3.org/2000/svg" xmlns:xlink="http://www.w3.org/1999/xlink" width="500" zoomAndPan="magnify" viewBox="0 0 375 374.999991" height="500" preserveAspectRatio="xMidYMid meet" version="1.0"><defs><g/><clipPath id="39fc36c0a5"><path d="M 211.355469 32.675781 L 245.910156 32.675781 L 245.910156 67.226562 L 211.355469 67.226562 Z M 211.355469 32.675781 " clip-rule="nonzero"/></clipPath><clipPath id="eaa84ffa7f"><path d="M 228.632812 32.675781 C 219.09375 32.675781 211.355469 40.410156 211.355469 49.953125 C 211.355469 59.492188 219.09375 67.226562 228.632812 67.226562 C 238.175781 67.226562 245.910156 59.492188 245.910156 49.953125 C 245.910156 40.410156 238.175781 32.675781 228.632812 32.675781 Z M 228.632812 32.675781 " clip-rule="nonzero"/></clipPath><radialGradient gradientTransform="matrix(1, 0, 0, 1, 211.357409, 32.675939)" gradientUnits="userSpaceOnUse" r="24.43185" cx="17.275959" id="2079ae6885" cy="17.275959" fx="17.275959" fy="17.275959"><stop stop-opacity="1" stop-color="rgb(5.148315%, 72.044373%, 19.599915%)" offset="0"/><stop stop-opacity="1" stop-color="rgb(5.221558%, 71.815491%, 19.599915%)" offset="0.0078125"/><stop stop-opacity="1" stop-color="rgb(5.270386%, 71.661377%, 19.599915%)" offset="0.0117188"/><stop stop-opacity="1" stop-color="rgb(5.319214%, 71.507263%, 19.599915%)" offset="0.015625"/><stop stop-opacity="1" stop-color="rgb(5.368042%, 71.354675%, 19.599915%)" offset="0.0195312"/><stop stop-opacity="1" stop-color="rgb(5.41687%, 71.200562%, 19.599915%)" offset="0.0234375"/><stop stop-opacity="1" stop-color="rgb(5.465698%, 71.047974%, 19.599915%)" offset="0.0273438"/><stop stop-opacity="1" stop-color="rgb(5.514526%, 70.89386%, 19.599915%)" offset="0.03125"/><stop stop-opacity="1" stop-color="rgb(5.563354%, 70.739746%, 19.599915%)" offset="0.0351562"/><stop stop-opacity="1" stop-color="rgb(5.612183%, 70.587158%, 19.599915%)" offset="0.0390625"/><stop stop-opacity="1" stop-color="rgb(5.661011%, 70.433044%, 19.599915%)" offset="0.0429688"/><stop stop-opacity="1" stop-color="rgb(5.709839%, 70.280457%, 19.599915%)" offset="0.046875"/><stop stop-opacity="1" stop-color="rgb(5.758667%, 70.126343%, 19.599915%)" offset="0.0507812"/><stop stop-opacity="1" stop-color="rgb(5.807495%, 69.972229%, 19.599915%)" offset="0.0546875"/><stop stop-opacity="1" stop-color="rgb(5.856323%, 69.819641%, 19.599915%)" offset="0.0585938"/><stop stop-opacity="1" stop-color="rgb(5.905151%, 69.665527%, 19.599915%)" offset="0.0625"/><stop stop-opacity="1" stop-color="rgb(5.953979%, 69.512939%, 19.599915%)" offset="0.0664062"/><stop stop-opacity="1" stop-color="rgb(6.002808%, 69.358826%, 19.599915%)" offset="0.0703125"/><stop stop-opacity="1" stop-color="rgb(6.051636%, 69.204712%, 19.599915%)" offset="0.0742188"/><stop stop-opacity="1" stop-color="rgb(6.100464%, 69.052124%, 19.599915%)" offset="0.078125"/><stop stop-opacity="1" stop-color="rgb(6.149292%, 68.89801%, 19.599915%)" offset="0.0820312"/><stop stop-opacity="1" stop-color="rgb(6.19812%, 68.745422%, 19.599915%)" offset="0.0859375"/><stop stop-opacity="1" stop-color="rgb(6.246948%, 68.591309%, 19.599915%)" offset="0.0898438"/><stop stop-opacity="1" stop-color="rgb(6.295776%, 68.437195%, 19.599915%)" offset="0.09375"/><stop stop-opacity="1" stop-color="rgb(6.344604%, 68.284607%, 19.599915%)" offset="0.0976562"/><stop stop-opacity="1" stop-color="rgb(6.393433%, 68.130493%, 19.599915%)" offset="0.101562"/><stop stop-opacity="1" stop-color="rgb(6.442261%, 67.976379%, 19.599915%)" offset="0.105469"/><stop stop-opacity="1" stop-color="rgb(6.491089%, 67.823792%, 19.599915%)" offset="0.109375"/><stop stop-opacity="1" stop-color="rgb(6.539917%, 67.669678%, 19.599915%)" offset="0.113281"/><stop stop-opacity="1" stop-color="rgb(6.588745%, 67.51709%, 19.599915%)" offset="0.117188"/><stop stop-opacity="1" stop-color="rgb(6.637573%, 67.362976%, 19.599915%)" offset="0.121094"/><stop stop-opacity="1" stop-color="rgb(6.686401%, 67.208862%, 19.599915%)" offset="0.125"/><stop stop-opacity="1" stop-color="rgb(6.735229%, 67.056274%, 19.599915%)" offset="0.128906"/><stop stop-opacity="1" stop-color="rgb(6.784058%, 66.902161%, 19.599915%)" offset="0.132812"/><stop stop-opacity="1" stop-color="rgb(6.832886%, 66.749573%, 19.599915%)" offset="0.136719"/><stop stop-opacity="1" stop-color="rgb(6.881714%, 66.595459%, 19.599915%)" offset="0.140625"/><stop stop-opacity="1" stop-color="rgb(6.930542%, 66.441345%, 19.599915%)" offset="0.144531"/><stop stop-opacity="1" stop-color="rgb(6.97937%, 66.288757%, 19.599915%)" offset="0.148438"/><stop stop-opacity="1" stop-color="rgb(7.028198%, 66.134644%, 19.599915%)" offset="0.152344"/><stop stop-opacity="1" stop-color="rgb(7.077026%, 65.982056%, 19.599915%)" offset="0.15625"/><stop stop-opacity="1" stop-color="rgb(7.125854%, 65.827942%, 19.599915%)" offset="0.160156"/><stop stop-opacity="1" stop-color="rgb(7.174683%, 65.673828%, 19.599915%)" offset="0.164062"/><stop stop-opacity="1" stop-color="rgb(7.223511%, 65.52124%, 19.599915%)" offset="0.167969"/><stop stop-opacity="1" stop-color="rgb(7.272339%, 65.367126%, 19.599915%)" offset="0.171875"/><stop stop-opacity="1" stop-color="rgb(7.321167%, 65.214539%, 19.599915%)" offset="0.175781"/><stop stop-opacity="1" stop-color="rgb(7.369995%, 65.060425%, 19.599915%)" offset="0.179688"/><stop stop-opacity="1" stop-color="rgb(7.418823%, 64.906311%, 19.599915%)" offset="0.183594"/><stop stop-opacity="1" stop-color="rgb(7.467651%, 64.753723%, 19.599915%)" offset="0.1875"/><stop stop-opacity="1" stop-color="rgb(7.516479%, 64.599609%, 19.599915%)" offset="0.191406"/><stop stop-opacity="1" stop-color="rgb(7.565308%, 64.445496%, 19.599915%)" offset="0.195312"/><stop stop-opacity="1" stop-color="rgb(7.614136%, 64.292908%, 19.599915%)" offset="0.199219"/><stop stop-opacity="1" stop-color="rgb(7.662964%, 64.138794%, 19.599915%)" offset="0.203125"/><stop stop-opacity="1" stop-color="rgb(7.711792%, 63.986206%, 19.599915%)" offset="0.207031"/><stop stop-opacity="1" stop-color="rgb(7.76062%, 63.832092%, 19.599915%)" offset="0.210938"/><stop stop-opacity="1" stop-color="rgb(7.809448%, 63.677979%, 19.599915%)" offset="0.214844"/><stop stop-opacity="1" stop-color="rgb(7.858276%, 63.525391%, 19.599915%)" offset="0.21875"/><stop stop-opacity="1" stop-color="rgb(7.907104%, 63.371277%, 19.599915%)" offset="0.222656"/><stop stop-opacity="1" stop-color="rgb(7.955933%, 63.218689%, 19.599915%)" offset="0.226562"/><stop stop-opacity="1" stop-color="rgb(8.004761%, 63.064575%, 19.599915%)" offset="0.230469"/><stop stop-opacity="1" stop-color="rgb(8.053589%, 62.910461%, 19.599915%)" offset="0.234375"/><stop stop-opacity="1" stop-color="rgb(8.102417%, 62.757874%, 19.599915%)" offset="0.238281"/><stop stop-opacity="1" stop-color="rgb(8.151245%, 62.60376%, 19.599915%)" offset="0.242188"/><stop stop-opacity="1" stop-color="rgb(8.200073%, 62.451172%, 19.599915%)" offset="0.246094"/><stop stop-opacity="1" stop-color="rgb(8.248901%, 62.297058%, 19.599915%)" offset="0.25"/><stop stop-opacity="1" stop-color="rgb(8.322144%, 62.06665%, 19.599915%)" offset="0.253906"/><stop stop-opacity="1" stop-color="rgb(8.4198%, 61.759949%, 19.599915%)" offset="0.261719"/><stop stop-opacity="1" stop-color="rgb(8.517456%, 61.453247%, 19.599915%)" offset="0.269531"/><stop stop-opacity="1" stop-color="rgb(8.615112%, 61.14502%, 19.599915%)" offset="0.277344"/><stop stop-opacity="1" stop-color="rgb(8.712769%, 60.838318%, 19.599915%)" offset="0.285156"/><stop stop-opacity="1" stop-color="rgb(8.810425%, 60.531616%, 19.599915%)" offset="0.292969"/><stop stop-opacity="1" stop-color="rgb(8.908081%, 60.224915%, 19.599915%)" offset="0.300781"/><stop stop-opacity="1" stop-color="rgb(9.005737%, 59.916687%, 19.599915%)" offset="0.308594"/><stop stop-opacity="1" stop-color="rgb(9.103394%, 59.609985%, 19.599915%)" offset="0.316406"/><stop stop-opacity="1" stop-color="rgb(9.20105%, 59.303284%, 19.599915%)" offset="0.324219"/><stop stop-opacity="1" stop-color="rgb(9.298706%, 58.996582%, 19.599915%)" offset="0.332031"/><stop stop-opacity="1" stop-color="rgb(9.396362%, 58.68988%, 19.599915%)" offset="0.339844"/><stop stop-opacity="1" stop-color="rgb(9.494019%, 58.381653%, 19.599915%)" offset="0.347656"/><stop stop-opacity="1" stop-color="rgb(9.591675%, 58.074951%, 19.599915%)" offset="0.355469"/><stop stop-opacity="1" stop-color="rgb(9.689331%, 57.76825%, 19.599915%)" offset="0.363281"/><stop stop-opacity="1" stop-color="rgb(9.786987%, 57.461548%, 19.599915%)" offset="0.371094"/><stop stop-opacity="1" stop-color="rgb(9.884644%, 57.154846%, 19.599915%)" offset="0.378906"/><stop stop-opacity="1" stop-color="rgb(9.9823%, 56.846619%, 19.599915%)" offset="0.386719"/><stop stop-opacity="1" stop-color="rgb(10.079956%, 56.539917%, 19.599915%)" offset="0.394531"/><stop stop-opacity="1" stop-color="rgb(10.177612%, 56.233215%, 19.599915%)" offset="0.402344"/><stop stop-opacity="1" stop-color="rgb(10.275269%, 55.926514%, 19.599915%)" offset="0.410156"/><stop stop-opacity="1" stop-color="rgb(10.372925%, 55.618286%, 19.599915%)" offset="0.417969"/><stop stop-opacity="1" stop-color="rgb(10.470581%, 55.311584%, 19.599915%)" offset="0.425781"/><stop stop-opacity="1" stop-color="rgb(10.568237%, 55.004883%, 19.599915%)" offset="0.433594"/><stop stop-opacity="1" stop-color="rgb(10.665894%, 54.698181%, 19.599915%)" offset="0.441406"/><stop stop-opacity="1" stop-color="rgb(10.76355%, 54.391479%, 19.599915%)" offset="0.449219"/><stop stop-opacity="1" stop-color="rgb(10.861206%, 54.083252%, 19.599915%)" offset="0.457031"/><stop stop-opacity="1" stop-color="rgb(10.958862%, 53.77655%, 19.599915%)" offset="0.464844"/><stop stop-opacity="1" stop-color="rgb(11.056519%, 53.469849%, 19.599915%)" offset="0.472656"/><stop stop-opacity="1" stop-color="rgb(11.154175%, 53.163147%, 19.599915%)" offset="0.480469"/><stop stop-opacity="1" stop-color="rgb(11.251831%, 52.854919%, 19.599915%)" offset="0.488281"/><stop stop-opacity="1" stop-color="rgb(11.349487%, 52.548218%, 19.599915%)" offset="0.496094"/><stop stop-opacity="1" stop-color="rgb(11.422729%, 52.31781%, 19.599915%)" offset="0.503906"/><stop stop-opacity="1" stop-color="rgb(11.471558%, 52.165222%, 19.599915%)" offset="0.507812"/><stop stop-opacity="1" stop-color="rgb(11.520386%, 52.011108%, 19.599915%)" offset="0.511719"/><stop stop-opacity="1" stop-color="rgb(11.569214%, 51.858521%, 19.599915%)" offset="0.515625"/><stop stop-opacity="1" stop-color="rgb(11.618042%, 51.704407%, 19.599915%)" offset="0.519531"/><stop stop-opacity="1" stop-color="rgb(11.66687%, 51.550293%, 19.599915%)" offset="0.523438"/><stop stop-opacity="1" stop-color="rgb(11.715698%, 51.397705%, 19.599915%)" offset="0.527344"/><stop stop-opacity="1" stop-color="rgb(11.764526%, 51.243591%, 19.599915%)" offset="0.53125"/><stop stop-opacity="1" stop-color="rgb(11.813354%, 51.091003%, 19.599915%)" offset="0.535156"/><stop stop-opacity="1" stop-color="rgb(11.862183%, 50.93689%, 19.599915%)" offset="0.539062"/><stop stop-opacity="1" stop-color="rgb(11.911011%, 50.782776%, 19.599915%)" offset="0.542969"/><stop stop-opacity="1" stop-color="rgb(11.959839%, 50.630188%, 19.599915%)" offset="0.546875"/><stop stop-opacity="1" stop-color="rgb(12.008667%, 50.476074%, 19.599915%)" offset="0.550781"/><stop stop-opacity="1" stop-color="rgb(12.057495%, 50.323486%, 19.599915%)" offset="0.554688"/><stop stop-opacity="1" stop-color="rgb(12.106323%, 50.169373%, 19.599915%)" offset="0.558594"/><stop stop-opacity="1" stop-color="rgb(12.155151%, 50.015259%, 19.599915%)" offset="0.5625"/><stop stop-opacity="1" stop-color="rgb(12.203979%, 49.862671%, 19.599915%)" offset="0.566406"/><stop stop-opacity="1" stop-color="rgb(12.252808%, 49.708557%, 19.599915%)" offset="0.570312"/><stop stop-opacity="1" stop-color="rgb(12.301636%, 49.555969%, 19.599915%)" offset="0.574219"/><stop stop-opacity="1" stop-color="rgb(12.350464%, 49.401855%, 19.599915%)" offset="0.578125"/><stop stop-opacity="1" stop-color="rgb(12.399292%, 49.247742%, 19.599915%)" offset="0.582031"/><stop stop-opacity="1" stop-color="rgb(12.44812%, 49.095154%, 19.599915%)" offset="0.585938"/><stop stop-opacity="1" stop-color="rgb(12.496948%, 48.94104%, 19.599915%)" offset="0.589844"/><stop stop-opacity="1" stop-color="rgb(12.545776%, 48.786926%, 19.599915%)" offset="0.59375"/><stop stop-opacity="1" stop-color="rgb(12.594604%, 48.634338%, 19.599915%)" offset="0.597656"/><stop stop-opacity="1" stop-color="rgb(12.643433%, 48.480225%, 19.599915%)" offset="0.601562"/><stop stop-opacity="1" stop-color="rgb(12.692261%, 48.327637%, 19.599915%)" offset="0.605469"/><stop stop-opacity="1" stop-color="rgb(12.741089%, 48.173523%, 19.599915%)" offset="0.609375"/><stop stop-opacity="1" stop-color="rgb(12.789917%, 48.019409%, 19.599915%)" offset="0.613281"/><stop stop-opacity="1" stop-color="rgb(12.838745%, 47.866821%, 19.599915%)" offset="0.617188"/><stop stop-opacity="1" stop-color="rgb(12.887573%, 47.712708%, 19.599915%)" offset="0.621094"/><stop stop-opacity="1" stop-color="rgb(12.936401%, 47.56012%, 19.599915%)" offset="0.625"/><stop stop-opacity="1" stop-color="rgb(13.009644%, 47.329712%, 19.599915%)" offset="0.628906"/><stop stop-opacity="1" stop-color="rgb(13.1073%, 47.021484%, 19.599915%)" offset="0.636719"/><stop stop-opacity="1" stop-color="rgb(13.204956%, 46.714783%, 19.599915%)" offset="0.644531"/><stop stop-opacity="1" stop-color="rgb(13.302612%, 46.408081%, 19.599915%)" offset="0.652344"/><stop stop-opacity="1" stop-color="rgb(13.400269%, 46.101379%, 19.599915%)" offset="0.660156"/><stop stop-opacity="1" stop-color="rgb(13.497925%, 45.794678%, 19.599915%)" offset="0.667969"/><stop stop-opacity="1" stop-color="rgb(13.595581%, 45.48645%, 19.599915%)" offset="0.675781"/><stop stop-opacity="1" stop-color="rgb(13.693237%, 45.179749%, 19.599915%)" offset="0.683594"/><stop stop-opacity="1" stop-color="rgb(13.790894%, 44.873047%, 19.599915%)" offset="0.691406"/><stop stop-opacity="1" stop-color="rgb(13.88855%, 44.566345%, 19.599915%)" offset="0.699219"/><stop stop-opacity="1" stop-color="rgb(13.986206%, 44.258118%, 19.599915%)" offset="0.707031"/><stop stop-opacity="1" stop-color="rgb(14.083862%, 43.951416%, 19.599915%)" offset="0.714844"/><stop stop-opacity="1" stop-color="rgb(14.181519%, 43.644714%, 19.599915%)" offset="0.722656"/><stop stop-opacity="1" stop-color="rgb(14.279175%, 43.338013%, 19.599915%)" offset="0.730469"/><stop stop-opacity="1" stop-color="rgb(14.376831%, 43.031311%, 19.599915%)" offset="0.738281"/><stop stop-opacity="1" stop-color="rgb(14.474487%, 42.723083%, 19.599915%)" offset="0.746094"/><stop stop-opacity="1" stop-color="rgb(14.547729%, 42.494202%, 19.599915%)" offset="0.753906"/><stop stop-opacity="1" stop-color="rgb(14.596558%, 42.340088%, 19.599915%)" offset="0.757812"/><stop stop-opacity="1" stop-color="rgb(14.645386%, 42.185974%, 19.599915%)" offset="0.761719"/><stop stop-opacity="1" stop-color="rgb(14.694214%, 42.033386%, 19.599915%)" offset="0.765625"/><stop stop-opacity="1" stop-color="rgb(14.743042%, 41.879272%, 19.599915%)" offset="0.769531"/><stop stop-opacity="1" stop-color="rgb(14.79187%, 41.726685%, 19.599915%)" offset="0.773438"/><stop stop-opacity="1" stop-color="rgb(14.840698%, 41.572571%, 19.599915%)" offset="0.777344"/><stop stop-opacity="1" stop-color="rgb(14.889526%, 41.418457%, 19.599915%)" offset="0.78125"/><stop stop-opacity="1" stop-color="rgb(14.938354%, 41.265869%, 19.599915%)" offset="0.785156"/><stop stop-opacity="1" stop-color="rgb(14.987183%, 41.111755%, 19.599915%)" offset="0.789062"/><stop stop-opacity="1" stop-color="rgb(15.036011%, 40.957642%, 19.599915%)" offset="0.792969"/><stop stop-opacity="1" stop-color="rgb(15.084839%, 40.805054%, 19.599915%)" offset="0.796875"/><stop stop-opacity="1" stop-color="rgb(15.133667%, 40.65094%, 19.599915%)" offset="0.800781"/><stop stop-opacity="1" stop-color="rgb(15.182495%, 40.498352%, 19.599915%)" offset="0.804688"/><stop stop-opacity="1" stop-color="rgb(15.231323%, 40.344238%, 19.599915%)" offset="0.808594"/><stop stop-opacity="1" stop-color="rgb(15.280151%, 40.190125%, 19.599915%)" offset="0.8125"/><stop stop-opacity="1" stop-color="rgb(15.353394%, 39.959717%, 19.599915%)" offset="0.816406"/><stop stop-opacity="1" stop-color="rgb(15.45105%, 39.653015%, 19.599915%)" offset="0.824219"/><stop stop-opacity="1" stop-color="rgb(15.548706%, 39.346313%, 19.599915%)" offset="0.832031"/><stop stop-opacity="1" stop-color="rgb(15.646362%, 39.039612%, 19.599915%)" offset="0.839844"/><stop stop-opacity="1" stop-color="rgb(15.744019%, 38.73291%, 19.599915%)" offset="0.847656"/><stop stop-opacity="1" stop-color="rgb(15.841675%, 38.424683%, 19.599915%)" offset="0.855469"/><stop stop-opacity="1" stop-color="rgb(15.939331%, 38.117981%, 19.599915%)" offset="0.863281"/><stop stop-opacity="1" stop-color="rgb(16.036987%, 37.811279%, 19.599915%)" offset="0.871094"/><stop stop-opacity="1" stop-color="rgb(16.110229%, 37.580872%, 19.599915%)" offset="0.878906"/><stop stop-opacity="1" stop-color="rgb(16.159058%, 37.426758%, 19.599915%)" offset="0.882812"/><stop stop-opacity="1" stop-color="rgb(16.207886%, 37.27417%, 19.599915%)" offset="0.886719"/><stop stop-opacity="1" stop-color="rgb(16.256714%, 37.120056%, 19.599915%)" offset="0.890625"/><stop stop-opacity="1" stop-color="rgb(16.305542%, 36.967468%, 19.599915%)" offset="0.894531"/><stop stop-opacity="1" stop-color="rgb(16.35437%, 36.813354%, 19.599915%)" offset="0.898438"/><stop stop-opacity="1" stop-color="rgb(16.403198%, 36.659241%, 19.599915%)" offset="0.902344"/><stop stop-opacity="1" stop-color="rgb(16.452026%, 36.506653%, 19.599915%)" offset="0.90625"/><stop stop-opacity="1" stop-color="rgb(16.525269%, 36.276245%, 19.599915%)" offset="0.910156"/><stop stop-opacity="1" stop-color="rgb(16.622925%, 35.969543%, 19.599915%)" offset="0.917969"/><stop stop-opacity="1" stop-color="rgb(16.720581%, 35.661316%, 19.599915%)" offset="0.925781"/><stop stop-opacity="1" stop-color="rgb(16.818237%, 35.354614%, 19.599915%)" offset="0.933594"/><stop stop-opacity="1" stop-color="rgb(16.891479%, 35.124207%, 19.599915%)" offset="0.941406"/><stop stop-opacity="1" stop-color="rgb(16.940308%, 34.971619%, 19.599915%)" offset="0.945312"/><stop stop-opacity="1" stop-color="rgb(16.989136%, 34.817505%, 19.599915%)" offset="0.949219"/><stop stop-opacity="1" stop-color="rgb(17.037964%, 34.664917%, 19.599915%)" offset="0.953125"/><stop stop-opacity="1" stop-color="rgb(17.111206%, 34.434509%, 19.599915%)" offset="0.957031"/><stop stop-opacity="1" stop-color="rgb(17.208862%, 34.126282%, 19.599915%)" offset="0.964844"/><stop stop-opacity="1" stop-color="rgb(17.282104%, 33.895874%, 19.599915%)" offset="0.972656"/><stop stop-opacity="1" stop-color="rgb(17.330933%, 33.743286%, 19.599915%)" offset="0.976562"/><stop stop-opacity="1" stop-color="rgb(17.404175%, 33.512878%, 19.599915%)" offset="0.980469"/><stop stop-opacity="1" stop-color="rgb(17.477417%, 33.282471%, 19.599915%)" offset="0.988281"/><stop stop-opacity="1" stop-color="rgb(17.550659%, 33.052063%, 19.599915%)" offset="0.992188"/><stop stop-opacity="1" stop-color="rgb(17.599487%, 32.899475%, 19.599915%)" offset="1"/></radialGradient><clipPath id="ff5cd39ada"><path d="M 211.355469 32.675781 L 245.855469 32.675781 L 245.855469 67.175781 L 211.355469 67.175781 Z M 211.355469 32.675781 " clip-rule="nonzero"/></clipPath><clipPath id="68cc818184"><path d="M 228.628906 32.675781 C 219.089844 32.675781 211.355469 40.410156 211.355469 49.949219 C 211.355469 59.488281 219.089844 67.222656 228.628906 67.222656 C 238.171875 67.222656 245.902344 59.488281 245.902344 49.949219 C 245.902344 40.410156 238.171875 32.675781 228.628906 32.675781 Z M 228.628906 32.675781 " clip-rule="nonzero"/></clipPath><clipPath id="75b8ee0e74"><path d="M 97.015625 127.65625 L 119.53125 127.65625 L 119.53125 150.171875 L 97.015625 150.171875 Z M 97.015625 127.65625 " clip-rule="nonzero"/></clipPath><clipPath id="2d4cc1922b"><path d="M 108.273438 127.65625 C 102.058594 127.65625 97.015625 132.695312 97.015625 138.914062 C 97.015625 145.132812 102.058594 150.171875 108.273438 150.171875 C 114.492188 150.171875 119.53125 145.132812 119.53125 138.914062 C 119.53125 132.695312 114.492188 127.65625 108.273438 127.65625 Z M 108.273438 127.65625 " clip-rule="nonzero"/></clipPath><clipPath id="54db3b64a3"><path d="M 97.015625 127.65625 L 119.515625 127.65625 L 119.515625 150.15625 L 97.015625 150.15625 Z M 97.015625 127.65625 " clip-rule="nonzero"/></clipPath><clipPath id="7c90a81158"><path d="M 108.273438 127.65625 C 102.054688 127.65625 97.015625 132.695312 97.015625 138.914062 C 97.015625 145.128906 102.054688 150.167969 108.273438 150.167969 C 114.488281 150.167969 119.527344 145.128906 119.527344 138.914062 C 119.527344 132.695312 114.488281 127.65625 108.273438 127.65625 Z M 108.273438 127.65625 " clip-rule="nonzero"/></clipPath></defs><path stroke-linecap="butt" transform="matrix(1.738173, 0, 0, 1.738173, 167.747924, 36.246135)" fill="none" stroke-linejoin="miter" d="M 57.398025 175.215376 L 59.703787 175.215376 L 59.703787 176.999757 L 20.669897 176.999757 L 20.669897 175.215376 L 22.975658 175.215376 C 26.081469 175.215376 28.749051 174.114184 30.982898 171.909553 C 33.24596 169.704921 34.376368 167.064307 34.376368 163.987711 L 34.376368 57.028245 L 15.316754 58.115953 C 3.307018 58.839593 -2.69785 63.176942 -2.69785 71.125751 C -2.69785 74.346177 -1.652841 77.08792 0.434929 79.350983 C 2.524947 81.584829 5.817287 82.818614 10.314196 83.050089 L 10.314196 84.137797 C 8.66016 84.486134 7.006125 84.659178 5.352089 84.659178 C 0.13154 84.659178 -3.801289 82.584892 -6.439656 78.436319 C -7.97683 76.058643 -8.747665 73.447244 -8.747665 70.604371 C -8.747665 60.50936 -1.07303 54.619106 14.273993 52.935855 C 14.388607 52.935855 20.292345 52.560551 31.98296 51.805448 C 43.705038 51.023377 52.943816 49.978368 59.703787 48.672669 L 60.052123 50.457049 C 54.946187 51.297551 51.318995 53.023501 49.172794 55.6349 C 47.055809 58.246298 45.995068 61.857759 45.995068 66.469282 L 45.995068 163.987711 C 46.11193 167.064307 47.258068 169.704921 49.433485 171.909553 C 51.638116 174.114184 54.292214 175.215376 57.398025 175.215376 Z M 57.398025 175.215376 " stroke="#ffffff" stroke-width="13.368225" stroke-opacity="1" stroke-miterlimit="4"/><g fill="#000000" fill-opacity="1"><g transform="translate(167.747924, 343.902766)"><g><path d="M 99.765625 -3.09375 L 103.796875 -3.09375 L 103.796875 0 L 35.9375 0 L 35.9375 -3.09375 L 39.96875 -3.09375 C 45.34375 -3.09375 49.988281 -5.003906 53.90625 -8.828125 C 57.832031 -12.648438 59.796875 -17.242188 59.796875 -22.609375 L 59.796875 -208.5 L 26.640625 -206.640625 C 5.785156 -205.398438 -4.640625 -197.863281 -4.640625 -184.03125 C -4.640625 -178.445312 -2.832031 -173.691406 0.78125 -169.765625 C 4.394531 -165.847656 10.125 -163.679688 17.96875 -163.265625 L 17.96875 -161.40625 C 15.082031 -160.789062 12.191406 -160.484375 9.296875 -160.484375 C 0.210938 -160.484375 -6.601562 -164.097656 -11.15625 -171.328125 C -13.832031 -175.453125 -15.171875 -179.992188 -15.171875 -184.953125 C -15.171875 -202.515625 -1.851562 -212.738281 24.78125 -215.625 C 24.988281 -215.625 35.265625 -216.296875 55.609375 -217.640625 C 75.953125 -218.984375 92.015625 -220.789062 103.796875 -223.0625 L 104.40625 -219.96875 C 95.53125 -218.519531 89.234375 -215.523438 85.515625 -210.984375 C 81.796875 -206.441406 79.9375 -200.140625 79.9375 -192.078125 L 79.9375 -22.609375 C 80.144531 -17.242188 82.15625 -12.648438 85.96875 -8.828125 C 89.789062 -5.003906 94.390625 -3.09375 99.765625 -3.09375 Z M 99.765625 -3.09375 "/></g></g></g><path stroke-linecap="butt" transform="matrix(1.360956, 0, 0, 1.360956, 65.403559, -53.804034)" fill="none" stroke-linejoin="miter" d="M 33.620922 153.09158 C 26.336291 162.632208 22.693976 172.942056 22.693976 184.021124 C 22.693976 197.186846 28.23351 207.410588 39.312578 214.692349 C 45.741882 219.034999 53.058086 221.207759 61.266929 221.207759 C 69.472902 221.207759 76.58532 219.583212 82.604182 216.334117 C 93.955922 210.453026 100.333561 200.588063 101.734231 186.739227 C 101.872002 185.749 101.940887 184.755902 101.940887 183.765674 C 101.940887 178.60214 100.502905 173.010941 97.63268 166.99208 C 94.759585 160.973218 90.092599 155.433684 83.628852 150.373477 L 45.827989 120.574801 C 37.55313 114.111055 33.414266 105.76731 33.414266 95.543569 C 33.414266 85.319828 36.697803 76.66897 43.262008 69.590995 C 49.860655 62.51015 58.769834 58.971162 69.986673 58.971162 C 75.592222 58.971162 81.679969 59.674367 88.244174 61.075037 L 96.656803 61.075037 L 97.067245 86.927154 L 94.963371 86.927154 C 94.82847 80.225178 92.417481 74.941094 87.733274 71.077771 C 83.046196 67.214449 77.165105 65.279917 70.087131 65.279917 C 63.009156 65.279917 57.093622 67.639242 52.34053 72.360762 C 47.587437 77.044969 45.210891 83.060961 45.210891 90.414477 C 45.210891 97.765123 48.287772 103.887313 54.444404 108.775306 L 93.321602 139.449401 C 108.711748 151.656468 116.403951 166.36063 116.403951 183.559018 C 116.403951 196.452069 111.29208 207.528267 101.068339 216.796224 C 92.245267 224.763968 80.483086 228.74784 65.778923 228.74784 C 56.820951 228.74784 48.835985 227.071629 41.826895 223.722076 C 28.661173 217.531001 20.745093 207.017367 18.078654 192.175434 C 17.668212 189.953879 17.461556 187.132448 17.461556 183.71401 C 17.461556 180.258259 18.437432 175.556831 20.386315 169.606855 C 22.36964 163.656878 26.164078 157.675329 31.772497 151.656468 Z M 33.620922 153.09158 " stroke="#ffffff" stroke-width="4.727047" stroke-opacity="1" stroke-miterlimit="4"/><g fill="#008d49" fill-opacity="1"><g transform="translate(77.16307, 230.635776)"><g><path d="M 34.03125 -76.0625 C 24.113281 -63.09375 19.15625 -49.082031 19.15625 -34.03125 C 19.15625 -16.101562 26.6875 -2.1875 41.75 7.71875 C 50.507812 13.625 60.460938 16.578125 71.609375 16.578125 C 82.765625 16.578125 92.441406 14.382812 100.640625 10 C 116.078125 2 124.75 -11.4375 126.65625 -30.3125 C 126.851562 -31.644531 126.953125 -32.976562 126.953125 -34.3125 C 126.953125 -41.363281 124.992188 -48.988281 121.078125 -57.1875 C 117.171875 -65.382812 110.835938 -72.910156 102.078125 -79.765625 L 50.609375 -120.375 C 39.359375 -129.144531 33.734375 -140.484375 33.734375 -154.390625 C 33.734375 -168.304688 38.210938 -180.078125 47.171875 -189.703125 C 56.128906 -199.328125 68.234375 -204.140625 83.484375 -204.140625 C 91.109375 -204.140625 99.398438 -203.1875 108.359375 -201.28125 L 119.796875 -201.28125 L 120.375 -166.125 L 117.515625 -166.125 C 117.328125 -175.269531 114.039062 -182.460938 107.65625 -187.703125 C 101.269531 -192.953125 93.257812 -195.578125 83.625 -195.578125 C 74 -195.578125 65.945312 -192.378906 59.46875 -185.984375 C 52.988281 -179.597656 49.75 -171.398438 49.75 -161.390625 C 49.75 -151.390625 53.941406 -143.054688 62.328125 -136.390625 L 115.21875 -94.640625 C 136.1875 -78.054688 146.671875 -58.039062 146.671875 -34.59375 C 146.671875 -17.0625 139.71875 -2.003906 125.8125 10.578125 C 113.800781 21.441406 97.785156 26.875 77.765625 26.875 C 65.566406 26.875 54.703125 24.585938 45.171875 20.015625 C 27.253906 11.628906 16.484375 -2.664062 12.859375 -22.875 C 12.296875 -25.925781 12.015625 -29.785156 12.015625 -34.453125 C 12.015625 -39.117188 13.347656 -45.503906 16.015625 -53.609375 C 18.679688 -61.710938 23.828125 -69.863281 31.453125 -78.0625 Z M 34.03125 -76.0625 "/></g></g></g><g clip-path="url(#39fc36c0a5)"><g clip-path="url(#eaa84ffa7f)"><path fill="url(#2079ae6885)" d="M 211.355469 32.675781 L 211.355469 67.226562 L 245.910156 67.226562 L 245.910156 32.675781 Z M 211.355469 32.675781 " fill-rule="nonzero"/></g></g><g clip-path="url(#ff5cd39ada)"><g clip-path="url(#68cc818184)"><path stroke-linecap="butt" transform="matrix(0.75, 0, 0, 0.75, 211.357402, 32.675941)" fill="none" stroke-linejoin="miter" d="M 23.028674 -0.000213606 C 10.309923 -0.000213606 -0.00257743 10.312287 -0.00257743 23.031038 C -0.00257743 35.749789 10.309923 46.062289 23.028674 46.062289 C 35.752633 46.062289 46.059926 35.749789 46.059926 23.031038 C 46.059926 10.312287 35.752633 -0.000213606 23.028674 -0.000213606 Z M 23.028674 -0.000213606 " stroke="#ffffff" stroke-width="8" stroke-opacity="1" stroke-miterlimit="4"/></g></g><g clip-path="url(#75b8ee0e74)"><g clip-path="url(#2d4cc1922b)"><path fill="#000000" d="M 97.015625 127.65625 L 119.53125 127.65625 L 119.53125 150.171875 L 97.015625 150.171875 Z M 97.015625 127.65625 " fill-opacity="1" fill-rule="nonzero"/></g></g><g clip-path="url(#54db3b64a3)"><g clip-path="url(#7c90a81158)"><path stroke-linecap="butt" transform="matrix(0.75, 0, 0, 0.75, 97.016564, 127.656524)" fill="none" stroke-linejoin="miter" d="M 15.009165 -0.00036589 C 6.717498 -0.00036589 -0.00125164 6.718384 -0.00125164 15.010051 C -0.00125164 23.296509 6.717498 30.015259 15.009165 30.015259 C 23.295623 30.015259 30.014373 23.296509 30.014373 15.010051 C 30.014373 6.718384 23.295623 -0.00036589 15.009165 -0.00036589 Z M 15.009165 -0.00036589 " stroke="#ffffff" stroke-width="50" stroke-opacity="1" stroke-miterlimit="4"/></g></g></svg>