<svg xmlns="http://www.w3.org/2000/svg" xmlns:xlink="http://www.w3.org/1999/xlink" width="500" zoomAndPan="magnify" viewBox="0 0 375 374.999991" height="500" preserveAspectRatio="xMidYMid meet" version="1.0"><defs><g/><clipPath id="12dfdc385e"><path d="M 182.097656 53.484375 L 209.5 53.484375 L 209.5 80.886719 L 182.097656 80.886719 Z M 182.097656 53.484375 " clip-rule="nonzero"/></clipPath><clipPath id="6e4c03cfeb"><path d="M 195.796875 53.484375 C 188.230469 53.484375 182.097656 59.621094 182.097656 67.1875 C 182.097656 74.753906 188.230469 80.886719 195.796875 80.886719 C 203.367188 80.886719 209.5 74.753906 209.5 67.1875 C 209.5 59.621094 203.367188 53.484375 195.796875 53.484375 Z M 195.796875 53.484375 " clip-rule="nonzero"/></clipPath><radialGradient gradientTransform="matrix(1, 0, 0, 1, 182.09735, 53.484899)" gradientUnits="userSpaceOnUse" r="19.376746" cx="13.701454" id="4ae5a648ba" cy="13.701454" fx="13.701454" fy="13.701454"><stop stop-opacity="1" stop-color="rgb(5.148315%, 72.044373%, 19.599915%)" offset="0"/><stop stop-opacity="1" stop-color="rgb(5.221558%, 71.815491%, 19.599915%)" offset="0.0078125"/><stop stop-opacity="1" stop-color="rgb(5.270386%, 71.661377%, 19.599915%)" offset="0.0117188"/><stop stop-opacity="1" stop-color="rgb(5.319214%, 71.507263%, 19.599915%)" offset="0.015625"/><stop stop-opacity="1" stop-color="rgb(5.368042%, 71.354675%, 19.599915%)" offset="0.0195312"/><stop stop-opacity="1" stop-color="rgb(5.41687%, 71.200562%, 19.599915%)" offset="0.0234375"/><stop stop-opacity="1" stop-color="rgb(5.465698%, 71.047974%, 19.599915%)" offset="0.0273438"/><stop stop-opacity="1" stop-color="rgb(5.514526%, 70.89386%, 19.599915%)" offset="0.03125"/><stop stop-opacity="1" stop-color="rgb(5.563354%, 70.739746%, 19.599915%)" offset="0.0351562"/><stop stop-opacity="1" stop-color="rgb(5.612183%, 70.587158%, 19.599915%)" offset="0.0390625"/><stop stop-opacity="1" stop-color="rgb(5.661011%, 70.433044%, 19.599915%)" offset="0.0429688"/><stop stop-opacity="1" stop-color="rgb(5.709839%, 70.280457%, 19.599915%)" offset="0.046875"/><stop stop-opacity="1" stop-color="rgb(5.758667%, 70.126343%, 19.599915%)" offset="0.0507812"/><stop stop-opacity="1" stop-color="rgb(5.807495%, 69.972229%, 19.599915%)" offset="0.0546875"/><stop stop-opacity="1" stop-color="rgb(5.856323%, 69.819641%, 19.599915%)" offset="0.0585938"/><stop stop-opacity="1" stop-color="rgb(5.905151%, 69.665527%, 19.599915%)" offset="0.0625"/><stop stop-opacity="1" stop-color="rgb(5.953979%, 69.512939%, 19.599915%)" offset="0.0664062"/><stop stop-opacity="1" stop-color="rgb(6.002808%, 69.358826%, 19.599915%)" offset="0.0703125"/><stop stop-opacity="1" stop-color="rgb(6.051636%, 69.204712%, 19.599915%)" offset="0.0742188"/><stop stop-opacity="1" stop-color="rgb(6.100464%, 69.052124%, 19.599915%)" offset="0.078125"/><stop stop-opacity="1" stop-color="rgb(6.149292%, 68.89801%, 19.599915%)" offset="0.0820312"/><stop stop-opacity="1" stop-color="rgb(6.19812%, 68.745422%, 19.599915%)" offset="0.0859375"/><stop stop-opacity="1" stop-color="rgb(6.246948%, 68.591309%, 19.599915%)" offset="0.0898438"/><stop stop-opacity="1" stop-color="rgb(6.295776%, 68.437195%, 19.599915%)" offset="0.09375"/><stop stop-opacity="1" stop-color="rgb(6.344604%, 68.284607%, 19.599915%)" offset="0.0976562"/><stop stop-opacity="1" stop-color="rgb(6.393433%, 68.130493%, 19.599915%)" offset="0.101562"/><stop stop-opacity="1" stop-color="rgb(6.442261%, 67.976379%, 19.599915%)" offset="0.105469"/><stop stop-opacity="1" stop-color="rgb(6.491089%, 67.823792%, 19.599915%)" offset="0.109375"/><stop stop-opacity="1" stop-color="rgb(6.539917%, 67.669678%, 19.599915%)" offset="0.113281"/><stop stop-opacity="1" stop-color="rgb(6.588745%, 67.51709%, 19.599915%)" offset="0.117188"/><stop stop-opacity="1" stop-color="rgb(6.637573%, 67.362976%, 19.599915%)" offset="0.121094"/><stop stop-opacity="1" stop-color="rgb(6.686401%, 67.208862%, 19.599915%)" offset="0.125"/><stop stop-opacity="1" stop-color="rgb(6.735229%, 67.056274%, 19.599915%)" offset="0.128906"/><stop stop-opacity="1" stop-color="rgb(6.784058%, 66.902161%, 19.599915%)" offset="0.132812"/><stop stop-opacity="1" stop-color="rgb(6.832886%, 66.749573%, 19.599915%)" offset="0.136719"/><stop stop-opacity="1" stop-color="rgb(6.881714%, 66.595459%, 19.599915%)" offset="0.140625"/><stop stop-opacity="1" stop-color="rgb(6.930542%, 66.441345%, 19.599915%)" offset="0.144531"/><stop stop-opacity="1" stop-color="rgb(6.97937%, 66.288757%, 19.599915%)" offset="0.148438"/><stop stop-opacity="1" stop-color="rgb(7.028198%, 66.134644%, 19.599915%)" offset="0.152344"/><stop stop-opacity="1" stop-color="rgb(7.077026%, 65.982056%, 19.599915%)" offset="0.15625"/><stop stop-opacity="1" stop-color="rgb(7.125854%, 65.827942%, 19.599915%)" offset="0.160156"/><stop stop-opacity="1" stop-color="rgb(7.174683%, 65.673828%, 19.599915%)" offset="0.164062"/><stop stop-opacity="1" stop-color="rgb(7.223511%, 65.52124%, 19.599915%)" offset="0.167969"/><stop stop-opacity="1" stop-color="rgb(7.272339%, 65.367126%, 19.599915%)" offset="0.171875"/><stop stop-opacity="1" stop-color="rgb(7.321167%, 65.214539%, 19.599915%)" offset="0.175781"/><stop stop-opacity="1" stop-color="rgb(7.369995%, 65.060425%, 19.599915%)" offset="0.179688"/><stop stop-opacity="1" stop-color="rgb(7.418823%, 64.906311%, 19.599915%)" offset="0.183594"/><stop stop-opacity="1" stop-color="rgb(7.467651%, 64.753723%, 19.599915%)" offset="0.1875"/><stop stop-opacity="1" stop-color="rgb(7.516479%, 64.599609%, 19.599915%)" offset="0.191406"/><stop stop-opacity="1" stop-color="rgb(7.565308%, 64.445496%, 19.599915%)" offset="0.195312"/><stop stop-opacity="1" stop-color="rgb(7.614136%, 64.292908%, 19.599915%)" offset="0.199219"/><stop stop-opacity="1" stop-color="rgb(7.662964%, 64.138794%, 19.599915%)" offset="0.203125"/><stop stop-opacity="1" stop-color="rgb(7.711792%, 63.986206%, 19.599915%)" offset="0.207031"/><stop stop-opacity="1" stop-color="rgb(7.76062%, 63.832092%, 19.599915%)" offset="0.210938"/><stop stop-opacity="1" stop-color="rgb(7.809448%, 63.677979%, 19.599915%)" offset="0.214844"/><stop stop-opacity="1" stop-color="rgb(7.858276%, 63.525391%, 19.599915%)" offset="0.21875"/><stop stop-opacity="1" stop-color="rgb(7.907104%, 63.371277%, 19.599915%)" offset="0.222656"/><stop stop-opacity="1" stop-color="rgb(7.955933%, 63.218689%, 19.599915%)" offset="0.226562"/><stop stop-opacity="1" stop-color="rgb(8.004761%, 63.064575%, 19.599915%)" offset="0.230469"/><stop stop-opacity="1" stop-color="rgb(8.053589%, 62.910461%, 19.599915%)" offset="0.234375"/><stop stop-opacity="1" stop-color="rgb(8.102417%, 62.757874%, 19.599915%)" offset="0.238281"/><stop stop-opacity="1" stop-color="rgb(8.151245%, 62.60376%, 19.599915%)" offset="0.242188"/><stop stop-opacity="1" stop-color="rgb(8.200073%, 62.451172%, 19.599915%)" offset="0.246094"/><stop stop-opacity="1" stop-color="rgb(8.248901%, 62.297058%, 19.599915%)" offset="0.25"/><stop stop-opacity="1" stop-color="rgb(8.322144%, 62.06665%, 19.599915%)" offset="0.253906"/><stop stop-opacity="1" stop-color="rgb(8.4198%, 61.759949%, 19.599915%)" offset="0.261719"/><stop stop-opacity="1" stop-color="rgb(8.517456%, 61.453247%, 19.599915%)" offset="0.269531"/><stop stop-opacity="1" stop-color="rgb(8.615112%, 61.14502%, 19.599915%)" offset="0.277344"/><stop stop-opacity="1" stop-color="rgb(8.712769%, 60.838318%, 19.599915%)" offset="0.285156"/><stop stop-opacity="1" stop-color="rgb(8.810425%, 60.531616%, 19.599915%)" offset="0.292969"/><stop stop-opacity="1" stop-color="rgb(8.908081%, 60.224915%, 19.599915%)" offset="0.300781"/><stop stop-opacity="1" stop-color="rgb(9.005737%, 59.916687%, 19.599915%)" offset="0.308594"/><stop stop-opacity="1" stop-color="rgb(9.103394%, 59.609985%, 19.599915%)" offset="0.316406"/><stop stop-opacity="1" stop-color="rgb(9.20105%, 59.303284%, 19.599915%)" offset="0.324219"/><stop stop-opacity="1" stop-color="rgb(9.298706%, 58.996582%, 19.599915%)" offset="0.332031"/><stop stop-opacity="1" stop-color="rgb(9.396362%, 58.68988%, 19.599915%)" offset="0.339844"/><stop stop-opacity="1" stop-color="rgb(9.494019%, 58.381653%, 19.599915%)" offset="0.347656"/><stop stop-opacity="1" stop-color="rgb(9.591675%, 58.074951%, 19.599915%)" offset="0.355469"/><stop stop-opacity="1" stop-color="rgb(9.689331%, 57.76825%, 19.599915%)" offset="0.363281"/><stop stop-opacity="1" stop-color="rgb(9.786987%, 57.461548%, 19.599915%)" offset="0.371094"/><stop stop-opacity="1" stop-color="rgb(9.884644%, 57.154846%, 19.599915%)" offset="0.378906"/><stop stop-opacity="1" stop-color="rgb(9.9823%, 56.846619%, 19.599915%)" offset="0.386719"/><stop stop-opacity="1" stop-color="rgb(10.079956%, 56.539917%, 19.599915%)" offset="0.394531"/><stop stop-opacity="1" stop-color="rgb(10.177612%, 56.233215%, 19.599915%)" offset="0.402344"/><stop stop-opacity="1" stop-color="rgb(10.275269%, 55.926514%, 19.599915%)" offset="0.410156"/><stop stop-opacity="1" stop-color="rgb(10.372925%, 55.618286%, 19.599915%)" offset="0.417969"/><stop stop-opacity="1" stop-color="rgb(10.470581%, 55.311584%, 19.599915%)" offset="0.425781"/><stop stop-opacity="1" stop-color="rgb(10.568237%, 55.004883%, 19.599915%)" offset="0.433594"/><stop stop-opacity="1" stop-color="rgb(10.665894%, 54.698181%, 19.599915%)" offset="0.441406"/><stop stop-opacity="1" stop-color="rgb(10.76355%, 54.391479%, 19.599915%)" offset="0.449219"/><stop stop-opacity="1" stop-color="rgb(10.861206%, 54.083252%, 19.599915%)" offset="0.457031"/><stop stop-opacity="1" stop-color="rgb(10.958862%, 53.77655%, 19.599915%)" offset="0.464844"/><stop stop-opacity="1" stop-color="rgb(11.056519%, 53.469849%, 19.599915%)" offset="0.472656"/><stop stop-opacity="1" stop-color="rgb(11.154175%, 53.163147%, 19.599915%)" offset="0.480469"/><stop stop-opacity="1" stop-color="rgb(11.251831%, 52.854919%, 19.599915%)" offset="0.488281"/><stop stop-opacity="1" stop-color="rgb(11.349487%, 52.548218%, 19.599915%)" offset="0.496094"/><stop stop-opacity="1" stop-color="rgb(11.422729%, 52.31781%, 19.599915%)" offset="0.503906"/><stop stop-opacity="1" stop-color="rgb(11.471558%, 52.165222%, 19.599915%)" offset="0.507812"/><stop stop-opacity="1" stop-color="rgb(11.520386%, 52.011108%, 19.599915%)" offset="0.511719"/><stop stop-opacity="1" stop-color="rgb(11.569214%, 51.858521%, 19.599915%)" offset="0.515625"/><stop stop-opacity="1" stop-color="rgb(11.618042%, 51.704407%, 19.599915%)" offset="0.519531"/><stop stop-opacity="1" stop-color="rgb(11.66687%, 51.550293%, 19.599915%)" offset="0.523438"/><stop stop-opacity="1" stop-color="rgb(11.715698%, 51.397705%, 19.599915%)" offset="0.527344"/><stop stop-opacity="1" stop-color="rgb(11.764526%, 51.243591%, 19.599915%)" offset="0.53125"/><stop stop-opacity="1" stop-color="rgb(11.813354%, 51.091003%, 19.599915%)" offset="0.535156"/><stop stop-opacity="1" stop-color="rgb(11.862183%, 50.93689%, 19.599915%)" offset="0.539062"/><stop stop-opacity="1" stop-color="rgb(11.911011%, 50.782776%, 19.599915%)" offset="0.542969"/><stop stop-opacity="1" stop-color="rgb(11.959839%, 50.630188%, 19.599915%)" offset="0.546875"/><stop stop-opacity="1" stop-color="rgb(12.008667%, 50.476074%, 19.599915%)" offset="0.550781"/><stop stop-opacity="1" stop-color="rgb(12.057495%, 50.323486%, 19.599915%)" offset="0.554688"/><stop stop-opacity="1" stop-color="rgb(12.106323%, 50.169373%, 19.599915%)" offset="0.558594"/><stop stop-opacity="1" stop-color="rgb(12.155151%, 50.015259%, 19.599915%)" offset="0.5625"/><stop stop-opacity="1" stop-color="rgb(12.203979%, 49.862671%, 19.599915%)" offset="0.566406"/><stop stop-opacity="1" stop-color="rgb(12.252808%, 49.708557%, 19.599915%)" offset="0.570312"/><stop stop-opacity="1" stop-color="rgb(12.301636%, 49.555969%, 19.599915%)" offset="0.574219"/><stop stop-opacity="1" stop-color="rgb(12.350464%, 49.401855%, 19.599915%)" offset="0.578125"/><stop stop-opacity="1" stop-color="rgb(12.399292%, 49.247742%, 19.599915%)" offset="0.582031"/><stop stop-opacity="1" stop-color="rgb(12.44812%, 49.095154%, 19.599915%)" offset="0.585938"/><stop stop-opacity="1" stop-color="rgb(12.496948%, 48.94104%, 19.599915%)" offset="0.589844"/><stop stop-opacity="1" stop-color="rgb(12.545776%, 48.786926%, 19.599915%)" offset="0.59375"/><stop stop-opacity="1" stop-color="rgb(12.594604%, 48.634338%, 19.599915%)" offset="0.597656"/><stop stop-opacity="1" stop-color="rgb(12.643433%, 48.480225%, 19.599915%)" offset="0.601562"/><stop stop-opacity="1" stop-color="rgb(12.692261%, 48.327637%, 19.599915%)" offset="0.605469"/><stop stop-opacity="1" stop-color="rgb(12.741089%, 48.173523%, 19.599915%)" offset="0.609375"/><stop stop-opacity="1" stop-color="rgb(12.789917%, 48.019409%, 19.599915%)" offset="0.613281"/><stop stop-opacity="1" stop-color="rgb(12.838745%, 47.866821%, 19.599915%)" offset="0.617188"/><stop stop-opacity="1" stop-color="rgb(12.887573%, 47.712708%, 19.599915%)" offset="0.621094"/><stop stop-opacity="1" stop-color="rgb(12.936401%, 47.56012%, 19.599915%)" offset="0.625"/><stop stop-opacity="1" stop-color="rgb(13.009644%, 47.329712%, 19.599915%)" offset="0.628906"/><stop stop-opacity="1" stop-color="rgb(13.1073%, 47.021484%, 19.599915%)" offset="0.636719"/><stop stop-opacity="1" stop-color="rgb(13.204956%, 46.714783%, 19.599915%)" offset="0.644531"/><stop stop-opacity="1" stop-color="rgb(13.302612%, 46.408081%, 19.599915%)" offset="0.652344"/><stop stop-opacity="1" stop-color="rgb(13.400269%, 46.101379%, 19.599915%)" offset="0.660156"/><stop stop-opacity="1" stop-color="rgb(13.497925%, 45.794678%, 19.599915%)" offset="0.667969"/><stop stop-opacity="1" stop-color="rgb(13.595581%, 45.48645%, 19.599915%)" offset="0.675781"/><stop stop-opacity="1" stop-color="rgb(13.693237%, 45.179749%, 19.599915%)" offset="0.683594"/><stop stop-opacity="1" stop-color="rgb(13.790894%, 44.873047%, 19.599915%)" offset="0.691406"/><stop stop-opacity="1" stop-color="rgb(13.88855%, 44.566345%, 19.599915%)" offset="0.699219"/><stop stop-opacity="1" stop-color="rgb(13.986206%, 44.258118%, 19.599915%)" offset="0.707031"/><stop stop-opacity="1" stop-color="rgb(14.083862%, 43.951416%, 19.599915%)" offset="0.714844"/><stop stop-opacity="1" stop-color="rgb(14.181519%, 43.644714%, 19.599915%)" offset="0.722656"/><stop stop-opacity="1" stop-color="rgb(14.279175%, 43.338013%, 19.599915%)" offset="0.730469"/><stop stop-opacity="1" stop-color="rgb(14.376831%, 43.031311%, 19.599915%)" offset="0.738281"/><stop stop-opacity="1" stop-color="rgb(14.474487%, 42.723083%, 19.599915%)" offset="0.746094"/><stop stop-opacity="1" stop-color="rgb(14.547729%, 42.494202%, 19.599915%)" offset="0.753906"/><stop stop-opacity="1" stop-color="rgb(14.596558%, 42.340088%, 19.599915%)" offset="0.757812"/><stop stop-opacity="1" stop-color="rgb(14.645386%, 42.185974%, 19.599915%)" offset="0.761719"/><stop stop-opacity="1" stop-color="rgb(14.694214%, 42.033386%, 19.599915%)" offset="0.765625"/><stop stop-opacity="1" stop-color="rgb(14.743042%, 41.879272%, 19.599915%)" offset="0.769531"/><stop stop-opacity="1" stop-color="rgb(14.79187%, 41.726685%, 19.599915%)" offset="0.773438"/><stop stop-opacity="1" stop-color="rgb(14.840698%, 41.572571%, 19.599915%)" offset="0.777344"/><stop stop-opacity="1" stop-color="rgb(14.889526%, 41.418457%, 19.599915%)" offset="0.78125"/><stop stop-opacity="1" stop-color="rgb(14.938354%, 41.265869%, 19.599915%)" offset="0.785156"/><stop stop-opacity="1" stop-color="rgb(14.987183%, 41.111755%, 19.599915%)" offset="0.789062"/><stop stop-opacity="1" stop-color="rgb(15.036011%, 40.957642%, 19.599915%)" offset="0.792969"/><stop stop-opacity="1" stop-color="rgb(15.084839%, 40.805054%, 19.599915%)" offset="0.796875"/><stop stop-opacity="1" stop-color="rgb(15.133667%, 40.65094%, 19.599915%)" offset="0.800781"/><stop stop-opacity="1" stop-color="rgb(15.182495%, 40.498352%, 19.599915%)" offset="0.804688"/><stop stop-opacity="1" stop-color="rgb(15.231323%, 40.344238%, 19.599915%)" offset="0.808594"/><stop stop-opacity="1" stop-color="rgb(15.280151%, 40.190125%, 19.599915%)" offset="0.8125"/><stop stop-opacity="1" stop-color="rgb(15.353394%, 39.959717%, 19.599915%)" offset="0.816406"/><stop stop-opacity="1" stop-color="rgb(15.45105%, 39.653015%, 19.599915%)" offset="0.824219"/><stop stop-opacity="1" stop-color="rgb(15.548706%, 39.346313%, 19.599915%)" offset="0.832031"/><stop stop-opacity="1" stop-color="rgb(15.646362%, 39.039612%, 19.599915%)" offset="0.839844"/><stop stop-opacity="1" stop-color="rgb(15.744019%, 38.73291%, 19.599915%)" offset="0.847656"/><stop stop-opacity="1" stop-color="rgb(15.841675%, 38.424683%, 19.599915%)" offset="0.855469"/><stop stop-opacity="1" stop-color="rgb(15.939331%, 38.117981%, 19.599915%)" offset="0.863281"/><stop stop-opacity="1" stop-color="rgb(16.036987%, 37.811279%, 19.599915%)" offset="0.871094"/><stop stop-opacity="1" stop-color="rgb(16.110229%, 37.580872%, 19.599915%)" offset="0.878906"/><stop stop-opacity="1" stop-color="rgb(16.159058%, 37.426758%, 19.599915%)" offset="0.882812"/><stop stop-opacity="1" stop-color="rgb(16.207886%, 37.27417%, 19.599915%)" offset="0.886719"/><stop stop-opacity="1" stop-color="rgb(16.256714%, 37.120056%, 19.599915%)" offset="0.890625"/><stop stop-opacity="1" stop-color="rgb(16.305542%, 36.967468%, 19.599915%)" offset="0.894531"/><stop stop-opacity="1" stop-color="rgb(16.35437%, 36.813354%, 19.599915%)" offset="0.898438"/><stop stop-opacity="1" stop-color="rgb(16.403198%, 36.659241%, 19.599915%)" offset="0.902344"/><stop stop-opacity="1" stop-color="rgb(16.452026%, 36.506653%, 19.599915%)" offset="0.90625"/><stop stop-opacity="1" stop-color="rgb(16.525269%, 36.276245%, 19.599915%)" offset="0.910156"/><stop stop-opacity="1" stop-color="rgb(16.622925%, 35.969543%, 19.599915%)" offset="0.917969"/><stop stop-opacity="1" stop-color="rgb(16.720581%, 35.661316%, 19.599915%)" offset="0.925781"/><stop stop-opacity="1" stop-color="rgb(16.818237%, 35.354614%, 19.599915%)" offset="0.933594"/><stop stop-opacity="1" stop-color="rgb(16.891479%, 35.124207%, 19.599915%)" offset="0.941406"/><stop stop-opacity="1" stop-color="rgb(16.940308%, 34.971619%, 19.599915%)" offset="0.945312"/><stop stop-opacity="1" stop-color="rgb(16.989136%, 34.817505%, 19.599915%)" offset="0.949219"/><stop stop-opacity="1" stop-color="rgb(17.037964%, 34.664917%, 19.599915%)" offset="0.953125"/><stop stop-opacity="1" stop-color="rgb(17.111206%, 34.434509%, 19.599915%)" offset="0.957031"/><stop stop-opacity="1" stop-color="rgb(17.208862%, 34.126282%, 19.599915%)" offset="0.964844"/><stop stop-opacity="1" stop-color="rgb(17.282104%, 33.895874%, 19.599915%)" offset="0.972656"/><stop stop-opacity="1" stop-color="rgb(17.330933%, 33.743286%, 19.599915%)" offset="0.976562"/><stop stop-opacity="1" stop-color="rgb(17.404175%, 33.512878%, 19.599915%)" offset="0.980469"/><stop stop-opacity="1" stop-color="rgb(17.477417%, 33.282471%, 19.599915%)" offset="0.988281"/><stop stop-opacity="1" stop-color="rgb(17.550659%, 33.052063%, 19.599915%)" offset="0.992188"/><stop stop-opacity="1" stop-color="rgb(17.599487%, 32.899475%, 19.599915%)" offset="1"/></radialGradient><clipPath id="231a7cee06"><path d="M 91.414062 128.8125 L 109.269531 128.8125 L 109.269531 146.671875 L 91.414062 146.671875 Z M 91.414062 128.8125 " clip-rule="nonzero"/></clipPath><clipPath id="45fa0a37b2"><path d="M 100.34375 128.8125 C 95.410156 128.8125 91.414062 132.8125 91.414062 137.742188 C 91.414062 142.671875 95.410156 146.671875 100.34375 146.671875 C 105.273438 146.671875 109.269531 142.671875 109.269531 137.742188 C 109.269531 132.8125 105.273438 128.8125 100.34375 128.8125 Z M 100.34375 128.8125 " clip-rule="nonzero"/></clipPath></defs><g fill="#000000" fill-opacity="1"><g transform="translate(147.507007, 300.316929)"><g><path d="M 79.125 -2.453125 L 82.3125 -2.453125 L 82.3125 0 L 28.5 0 L 28.5 -2.453125 L 31.703125 -2.453125 C 35.960938 -2.453125 39.644531 -3.96875 42.75 -7 C 45.863281 -10.03125 47.421875 -13.675781 47.421875 -17.9375 L 47.421875 -165.359375 L 21.140625 -163.890625 C 4.585938 -162.898438 -3.6875 -156.921875 -3.6875 -145.953125 C -3.6875 -141.523438 -2.253906 -137.753906 0.609375 -134.640625 C 3.484375 -131.535156 8.03125 -129.816406 14.25 -129.484375 L 14.25 -128.015625 C 11.957031 -127.523438 9.664062 -127.28125 7.375 -127.28125 C 0.164062 -127.28125 -5.238281 -130.144531 -8.84375 -135.875 C -10.96875 -139.144531 -12.03125 -142.75 -12.03125 -146.6875 C -12.03125 -160.601562 -1.46875 -168.710938 19.65625 -171.015625 C 19.820312 -171.015625 27.972656 -171.546875 44.109375 -172.609375 C 60.242188 -173.671875 72.976562 -175.101562 82.3125 -176.90625 L 82.8125 -174.453125 C 75.757812 -173.304688 70.757812 -170.929688 67.8125 -167.328125 C 64.863281 -163.722656 63.390625 -158.726562 63.390625 -152.34375 L 63.390625 -17.9375 C 63.554688 -13.675781 65.15625 -10.03125 68.1875 -7 C 71.21875 -3.96875 74.863281 -2.453125 79.125 -2.453125 Z M 79.125 -2.453125 "/></g></g></g><g clip-path="url(#12dfdc385e)"><g clip-path="url(#6e4c03cfeb)"><path fill="url(#4ae5a648ba)" d="M 182.097656 53.484375 L 182.097656 80.886719 L 209.5 80.886719 L 209.5 53.484375 Z M 182.097656 53.484375 " fill-rule="nonzero"/></g></g><g clip-path="url(#231a7cee06)"><g clip-path="url(#45fa0a37b2)"><path fill="#000000" d="M 91.414062 128.8125 L 109.269531 128.8125 L 109.269531 146.671875 L 91.414062 146.671875 Z M 91.414062 128.8125 " fill-opacity="1" fill-rule="nonzero"/></g></g><g fill="#008d49" fill-opacity="1"><g transform="translate(71.300705, 213.591166)"><g><path d="M 26.984375 -60.3125 C 19.117188 -50.039062 15.1875 -38.929688 15.1875 -26.984375 C 15.1875 -12.773438 21.160156 -1.738281 33.109375 6.125 C 40.054688 10.8125 47.953125 13.15625 56.796875 13.15625 C 65.648438 13.15625 73.328125 11.414062 79.828125 7.9375 C 92.066406 1.582031 98.941406 -9.070312 100.453125 -24.03125 C 100.609375 -25.09375 100.6875 -26.15625 100.6875 -27.21875 C 100.6875 -32.8125 99.132812 -38.859375 96.03125 -45.359375 C 92.9375 -51.859375 87.910156 -57.828125 80.953125 -63.265625 L 40.140625 -95.46875 C 31.222656 -102.425781 26.765625 -111.421875 26.765625 -122.453125 C 26.765625 -133.484375 30.316406 -142.816406 37.421875 -150.453125 C 44.523438 -158.085938 54.125 -161.90625 66.21875 -161.90625 C 72.257812 -161.90625 78.832031 -161.148438 85.9375 -159.640625 L 95.015625 -159.640625 L 95.46875 -131.75 L 93.203125 -131.75 C 93.046875 -139.007812 90.4375 -144.71875 85.375 -148.875 C 80.3125 -153.03125 73.960938 -155.109375 66.328125 -155.109375 C 58.691406 -155.109375 52.300781 -152.578125 47.15625 -147.515625 C 42.019531 -142.453125 39.453125 -135.953125 39.453125 -128.015625 C 39.453125 -120.078125 42.78125 -113.460938 49.4375 -108.171875 L 91.390625 -75.0625 C 108.015625 -61.90625 116.328125 -46.03125 116.328125 -27.4375 C 116.328125 -13.53125 110.8125 -1.585938 99.78125 8.390625 C 90.25 17.003906 77.550781 21.3125 61.6875 21.3125 C 52.007812 21.3125 43.390625 19.5 35.828125 15.875 C 21.617188 9.21875 13.078125 -2.117188 10.203125 -18.140625 C 9.753906 -20.554688 9.53125 -23.613281 9.53125 -27.3125 C 9.53125 -31.019531 10.585938 -36.085938 12.703125 -42.515625 C 14.816406 -48.941406 18.894531 -55.40625 24.9375 -61.90625 Z M 26.984375 -60.3125 "/></g></g></g><path stroke-linecap="butt" transform="matrix(0.8599, 0, 0, 0.8599, 37.500002, 269.678214)" fill="none" stroke-linejoin="miter" d="M 14.005082 66.61558 C 10.084748 66.61558 6.550543 65.961434 3.397923 64.653142 L 3.397923 54.482081 L 3.652313 54.482081 C 5.778287 56.935128 7.631701 58.629548 9.217096 59.56534 C 10.811577 60.505675 12.651363 60.973571 14.736453 60.973571 C 16.944196 60.973571 18.79761 60.269456 20.301237 58.865767 C 21.818492 57.457537 22.57712 55.690434 22.57712 53.569002 C 22.57712 52.37882 22.304559 51.297662 21.754895 50.320985 C 21.20523 49.335224 20.242182 48.322206 18.86575 47.281932 C 17.498403 46.237116 15.549593 45.001507 13.01932 43.575105 C 9.385176 41.530899 6.823104 39.43218 5.328562 37.288035 C 3.843105 35.14389 3.098106 32.540934 3.098106 29.479167 C 3.098106 27.067004 3.743166 24.759322 5.028745 22.551579 C 6.314324 20.348379 8.12231 18.572191 10.44362 17.227558 C 12.778558 15.869296 15.417855 15.192437 18.35697 15.192437 C 21.791236 15.192437 24.975655 15.932894 27.919312 17.404722 L 27.919312 25.00917 L 27.723977 25.068224 C 26.047728 23.591853 24.489588 22.56975 23.040473 22.001915 C 21.595901 21.429537 20.033219 21.147891 18.35697 21.147891 C 16.762489 21.147891 15.372429 21.474964 14.182246 22.133653 C 12.996607 22.783256 12.083528 23.650908 11.447553 24.736609 C 10.81612 25.813224 10.502675 26.967065 10.502675 28.193589 C 10.502675 30.069716 11.165906 31.773221 12.492369 33.308647 C 13.83246 34.834987 16.194654 36.543035 19.583493 38.428248 C 22.277303 39.931875 24.398735 41.317393 25.943246 42.5848 C 27.501386 43.852208 28.655226 45.264982 29.413854 46.818579 C 30.172482 48.376718 30.549524 50.216504 30.549524 52.342478 C 30.549524 55.281593 29.81361 57.834579 28.337239 60.001438 C 26.869953 62.163754 24.880259 63.812747 22.368157 64.939331 C 19.856054 66.056831 17.066848 66.61558 14.005082 66.61558 Z M 63.016062 44.424586 C 63.016062 46.02361 62.957007 47.309188 62.838897 48.285865 L 43.282658 48.840072 C 43.45528 52.8876 44.477383 55.813086 46.35351 57.607445 C 48.225094 59.401804 50.614544 60.301255 53.517317 60.301255 C 54.902834 60.301255 56.292895 60.046864 57.678412 59.538084 C 59.073015 59.029304 60.649325 58.161652 62.4028 56.935128 L 62.525452 57.053238 L 60.145088 64.712197 C 57.69204 65.861495 54.993688 66.433873 52.050031 66.433873 C 46.944058 66.433873 42.951042 64.962045 40.06644 62.018388 C 37.18638 59.079273 35.746351 54.722843 35.746351 48.958181 C 35.746351 45.078732 36.418667 41.762575 37.763301 39.009711 C 39.121562 36.247761 40.961348 34.153585 43.282658 32.727184 C 45.617595 31.300782 48.193295 30.587581 51.005215 30.587581 C 54.925548 30.587581 57.905546 31.814105 59.949753 34.267152 C 61.993959 36.711115 63.016062 40.095412 63.016062 44.424586 Z M 57.137833 44.424586 C 57.137833 41.444588 56.55637 39.17779 55.388901 37.633279 C 54.221432 36.079682 52.513384 35.298341 50.2693 35.298341 C 46.230857 35.298341 43.923176 38.341937 43.346255 44.424586 Z M 53.953414 16.001034 C 54.848322 20.24844 56.479145 23.982524 58.845881 27.207827 L 55.970364 27.207827 C 53.399207 25.3317 51.255062 23.064902 49.537929 20.411977 C 47.820796 23.064902 45.67665 25.3317 43.105493 27.207827 L 40.216348 27.207827 C 42.669396 23.896213 44.327474 20.157587 45.186041 16.001034 Z M 68.776181 65.997776 C 69.3849 64.403295 69.807369 62.881497 70.048131 61.436925 C 70.297979 59.978724 70.425174 58.334274 70.425174 56.499031 L 70.425174 40.56785 C 70.425174 38.732607 70.316149 37.101785 70.107186 35.675383 C 69.907308 34.239896 69.543894 32.722641 69.016943 31.12816 L 77.784316 31.12816 C 77.534469 32.522763 77.411816 34.035476 77.411816 35.657213 L 77.411816 37.501541 L 82.931173 31.677825 C 84.398459 30.950996 86.170105 30.587581 88.255195 30.587581 C 90.90812 30.587581 93.124948 31.464319 94.901136 33.222336 C 96.68641 34.975811 97.576775 37.510626 97.576775 40.82224 L 97.576775 56.499031 C 97.576775 58.334274 97.694885 59.978724 97.935647 61.436925 C 98.185494 62.881497 98.612506 64.403295 99.221226 65.997776 L 88.868457 65.997776 C 89.527145 64.403295 89.976871 62.895125 90.217633 61.468723 C 90.46748 60.042322 90.590133 58.384243 90.590133 56.499031 L 90.590133 42.525746 C 90.590133 40.890381 89.985956 39.573003 88.782146 38.578156 C 87.573793 37.578767 86.033824 37.079072 84.157697 37.079072 C 83.090167 37.079072 82.022637 37.265322 80.955107 37.633279 C 79.896663 37.99215 78.715566 38.582699 77.411816 39.400381 L 77.411816 56.499031 C 77.411816 58.384243 77.529926 60.042322 77.770688 61.468723 C 78.015993 62.895125 78.470261 64.403295 79.12895 65.997776 Z M 111.109421 16.673351 C 112.458597 16.673351 113.59881 17.150332 114.534602 18.108838 C 115.474937 19.067343 115.942833 20.221184 115.942833 21.565818 C 115.942833 22.924079 115.474937 24.07792 114.534602 25.036426 C 113.59881 25.994931 112.458597 26.471913 111.109421 26.471913 C 109.723903 26.471913 108.547349 25.994931 107.579758 25.036426 C 106.621252 24.07792 106.144271 22.924079 106.144271 21.565818 C 106.144271 20.221184 106.621252 19.067343 107.579758 18.108838 C 108.547349 17.150332 109.723903 16.673351 111.109421 16.673351 Z M 116.256278 31.12816 C 115.597589 32.722641 115.143321 34.239896 114.898016 35.675383 C 114.657254 37.101785 114.534602 38.750778 114.534602 40.626905 L 114.534602 56.499031 C 114.534602 58.384243 114.657254 60.042322 114.898016 61.468723 C 115.143321 62.895125 115.597589 64.403295 116.256278 65.997776 L 105.903509 65.997776 C 106.512228 64.403295 106.934697 62.881497 107.175459 61.436925 C 107.425307 59.978724 107.547959 58.334274 107.547959 56.499031 L 107.547959 40.626905 C 107.547959 38.791662 107.425307 37.151755 107.175459 35.702639 C 106.934697 34.248982 106.512228 32.722641 105.903509 31.12816 Z M 138.806144 30.587581 C 141.949679 30.587581 144.757055 31.282611 147.228273 32.668129 C 149.704034 34.053646 151.643759 36.079682 153.05199 38.741693 C 154.455678 41.394618 155.159794 44.556324 155.159794 48.22681 C 155.159794 51.656533 154.351197 54.763727 152.734002 57.54839 C 151.130436 60.319425 149.01809 62.495369 146.39242 64.071679 C 143.780379 65.647989 141.045685 66.433873 138.192882 66.433873 C 135.330993 66.433873 132.673525 65.820611 130.220478 64.594088 C 127.76743 63.367564 125.782279 61.468723 124.265023 58.893024 C 122.761396 56.321866 122.007311 53.132905 122.007311 49.335224 C 122.007311 45.65111 122.815908 42.384923 124.42856 39.532119 C 126.045754 36.67023 128.149015 34.46703 130.742886 32.922519 C 133.336756 31.36438 136.026023 30.587581 138.806144 30.587581 Z M 137.997547 35.539103 C 136.493919 35.539103 135.126573 36.02517 133.900049 36.992761 C 132.673525 37.946724 131.701391 39.359497 130.983648 41.226539 C 130.27499 43.079953 129.920661 45.292238 129.920661 47.867938 C 129.920661 50.439095 130.347673 52.728606 131.206239 54.736471 C 132.064806 56.730708 133.218647 58.320646 134.663219 59.506285 C 136.12142 60.691925 137.724986 61.386955 139.483003 61.586833 C 141.727087 61.255217 143.580501 59.951468 145.047787 57.6665 C 146.524158 55.381532 147.260072 52.442417 147.260072 48.840072 C 147.260072 46.305256 146.842146 44.033916 146.00175 42.016965 C 145.165896 39.99093 144.039312 38.405534 142.621995 37.260779 C 141.218307 36.111481 139.673796 35.539103 137.997547 35.539103 Z M 160.919913 65.997776 C 161.528632 64.403295 161.951101 62.881497 162.191863 61.436925 C 162.441711 59.978724 162.564363 58.334274 162.564363 56.499031 L 162.564363 40.56785 C 162.564363 38.732607 162.459881 37.101785 162.250918 35.675383 C 162.05104 34.239896 161.687626 32.722641 161.160675 31.12816 L 169.928048 31.12816 C 169.678201 32.522763 169.555548 34.035476 169.555548 35.657213 L 169.555548 39.277729 C 171.349907 36.097853 173.026156 33.871939 174.579753 32.609074 C 176.137892 31.341666 177.873196 30.705691 179.785665 30.705691 C 180.812311 30.705691 181.670877 30.846514 182.361365 31.12816 L 181.448286 39.654772 C 179.563073 38.505473 177.927708 37.933096 176.542191 37.933096 C 173.966491 37.933096 171.636096 39.141449 169.555548 41.553612 L 169.555548 56.499031 C 169.555548 58.384243 169.673658 60.042322 169.91442 61.468723 C 170.159725 62.895125 170.613993 64.403295 171.272681 65.997776 Z M 186.586058 65.997776 C 187.28563 63.794576 187.785325 61.600461 188.085142 59.415432 C 188.394044 57.234945 188.548495 54.622904 188.548495 51.592936 L 188.548495 30.215081 C 188.548495 27.189656 188.394044 24.5867 188.085142 22.401671 C 187.785325 20.221184 187.28563 18.022527 186.586058 15.805699 L 197.806478 15.805699 C 197.111448 18.022527 196.607211 20.221184 196.298308 22.401671 C 195.989406 24.5867 195.834955 27.189656 195.834955 30.215081 L 195.834955 51.592936 C 195.834955 54.622904 195.989406 57.234945 196.298308 59.415432 C 196.607211 61.600461 197.111448 63.794576 197.806478 65.997776 Z M 205.21559 65.997776 C 205.82431 64.403295 206.246779 62.881497 206.487541 61.436925 C 206.737388 59.978724 206.860041 58.334274 206.860041 56.499031 L 206.860041 40.56785 C 206.860041 38.732607 206.755559 37.101785 206.546596 35.675383 C 206.346718 34.239896 205.983303 32.722641 205.456352 31.12816 L 214.223726 31.12816 C 213.973878 32.522763 213.846683 34.035476 213.846683 35.657213 L 213.846683 37.501541 L 219.370583 31.677825 C 220.833326 30.950996 222.609514 30.587581 224.694604 30.587581 C 227.34753 30.587581 229.564358 31.464319 231.336003 33.222336 C 233.121277 34.975811 234.016185 37.510626 234.016185 40.82224 L 234.016185 56.499031 C 234.016185 58.334274 234.134295 59.978724 234.375057 61.436925 C 234.624904 62.881497 235.051916 64.403295 235.660635 65.997776 L 225.307866 65.997776 C 225.966555 64.403295 226.41628 62.895125 226.657042 61.468723 C 226.902347 60.042322 227.029542 58.384243 227.029542 56.499031 L 227.029542 42.525746 C 227.029542 40.890381 226.425366 39.573003 225.217013 38.578156 C 224.013202 37.578767 222.468691 37.079072 220.597107 37.079072 C 219.529577 37.079072 218.462047 37.265322 217.394517 37.633279 C 216.336072 37.99215 215.154975 38.582699 213.846683 39.400381 L 213.846683 56.499031 C 213.846683 58.384243 213.969336 60.042322 214.205555 61.468723 C 214.455403 62.895125 214.909671 64.403295 215.568359 65.997776 Z M 269.544489 31.12816 L 269.544489 31.318953 C 268.56327 32.668129 267.786472 33.953707 267.209551 35.180231 C 266.641716 36.406755 265.964857 38.223827 265.188059 40.626905 L 256.797728 65.997776 L 249.629378 65.997776 L 242.342918 41.735319 C 241.643345 39.527576 240.898346 37.587852 240.098834 35.911603 C 239.299322 34.239896 238.354445 32.709013 237.255116 31.318953 L 237.255116 31.12816 L 248.657244 31.12816 C 248.330171 32.191147 248.162092 33.322275 248.162092 34.507915 C 248.162092 35.325597 248.234775 36.143279 248.371055 36.960962 C 248.511878 37.769559 248.788982 38.868888 249.197823 40.268033 L 254.281083 57.353055 L 260.100256 39.890991 C 260.758945 37.887669 261.090561 35.947944 261.090561 34.071817 C 261.090561 33.054257 260.945195 32.073038 260.654463 31.12816 Z M 298.154291 44.424586 C 298.154291 46.02361 298.095236 47.309188 297.977127 48.285865 L 278.420887 48.840072 C 278.593509 52.8876 279.615612 55.813086 281.487196 57.607445 C 283.363323 59.401804 285.752773 60.301255 288.655546 60.301255 C 290.041064 60.301255 291.426581 60.046864 292.816642 59.538084 C 294.211245 59.029304 295.787555 58.161652 297.541029 56.935128 L 297.663682 57.053238 L 295.283317 64.712197 C 292.83027 65.861495 290.131917 66.433873 287.18826 66.433873 C 282.082288 66.433873 278.089271 64.962045 275.204669 62.018388 C 272.32461 59.079273 270.880037 54.722843 270.880037 48.958181 C 270.880037 45.078732 271.556897 41.762575 272.90153 39.009711 C 274.259792 36.247761 276.099577 34.153585 278.420887 32.727184 C 280.755825 31.300782 283.331525 30.587581 286.143444 30.587581 C 290.063777 30.587581 293.043776 31.814105 295.087982 34.267152 C 297.132188 36.711115 298.154291 40.095412 298.154291 44.424586 Z M 292.276063 44.424586 C 292.276063 41.444588 291.694599 39.17779 290.527131 37.633279 C 289.359662 36.079682 287.651614 35.298341 285.40753 35.298341 C 281.369087 35.298341 279.061405 38.341937 278.479942 44.424586 Z M 311.514315 66.433873 C 309.87895 66.433873 308.393493 66.329392 307.057945 66.120428 C 305.731482 65.92055 304.232398 65.59802 302.569777 65.148295 L 302.987703 55.454214 L 303.183039 55.454214 C 304.568556 57.78461 305.840507 59.410889 306.99889 60.328511 C 308.161816 61.246132 309.565505 61.704943 311.20087 61.704943 C 312.718125 61.704943 313.867423 61.341528 314.65785 60.614699 C 315.452819 59.874243 315.852575 58.815798 315.852575 57.425738 C 315.852575 56.162873 315.475532 55.068087 314.716904 54.150465 C 313.967362 53.223758 312.47282 52.047204 310.228736 50.620802 C 307.775689 49.026321 306.063098 47.454554 305.095507 45.9055 C 304.141544 44.351903 303.66002 42.553002 303.66002 40.508795 C 303.66002 38.632668 304.141544 36.942791 305.095507 35.434621 C 306.063098 33.917366 307.416817 32.731726 309.152121 31.87316 C 310.887425 31.014593 312.877119 30.587581 315.121203 30.587581 C 317.533366 30.587581 319.804707 30.932825 321.926138 31.61877 L 321.926138 38.246541 L 321.748974 38.246541 C 320.440682 37.138127 319.273213 36.361328 318.246567 35.911603 C 317.229007 35.46642 316.166019 35.239286 315.062148 35.239286 C 313.676631 35.239286 312.600015 35.579987 311.84593 36.256847 C 311.087303 36.924621 310.705717 37.851327 310.705717 39.04151 C 310.705717 40.308918 311.105473 41.417332 311.904985 42.375837 C 312.699954 43.334343 314.103643 44.424586 316.106965 45.65111 C 318.600896 47.168365 320.377084 48.712877 321.435529 50.289187 C 322.503059 51.856411 323.034552 53.723453 323.034552 55.885769 C 323.034552 59.238267 321.948852 61.836681 319.772908 63.681009 C 317.610592 65.516252 314.857727 66.433873 311.514315 66.433873 Z M 337.675612 31.12816 L 347.292466 31.12816 L 347.292466 35.734438 L 337.675612 35.734438 L 337.675612 56.499031 C 337.675612 58.05717 338.029941 59.17467 338.738599 59.851529 C 339.456343 60.519303 340.569299 60.855462 342.086555 60.855462 C 343.880913 60.855462 345.884235 60.505675 348.087436 59.806102 L 348.205545 59.924212 L 343.985395 65.820611 C 342.104725 66.188568 340.464818 66.374818 339.0793 66.374818 C 336.140186 66.374818 334.005126 65.738843 332.678663 64.475978 C 331.3522 63.20857 330.688969 61.12348 330.688969 58.220707 L 330.688969 35.734438 L 326.214429 35.734438 L 326.214429 35.480048 L 337.421222 23.600939 L 337.675612 23.600939 Z M 337.675612 31.12816 " stroke="#808080" stroke-width="0.84264" stroke-opacity="1" stroke-miterlimit="4"/><g fill="#ffffff" fill-opacity="1"><g transform="translate(37.526874, 326.4316)"><g><path d="M 12.015625 0.53125 C 8.640625 0.53125 5.597656 -0.03125 2.890625 -1.15625 L 2.890625 -9.90625 L 3.109375 -9.90625 C 4.929688 -7.800781 6.523438 -6.34375 7.890625 -5.53125 C 9.265625 -4.726562 10.847656 -4.328125 12.640625 -4.328125 C 14.535156 -4.328125 16.132812 -4.929688 17.4375 -6.140625 C 18.738281 -7.347656 19.390625 -8.867188 19.390625 -10.703125 C 19.390625 -11.710938 19.148438 -12.640625 18.671875 -13.484375 C 18.203125 -14.328125 17.378906 -15.195312 16.203125 -16.09375 C 15.023438 -16.988281 13.347656 -18.050781 11.171875 -19.28125 C 8.046875 -21.039062 5.84375 -22.84375 4.5625 -24.6875 C 3.28125 -26.53125 2.640625 -28.769531 2.640625 -31.40625 C 2.640625 -33.476562 3.191406 -35.460938 4.296875 -37.359375 C 5.398438 -39.253906 6.953125 -40.78125 8.953125 -41.9375 C 10.953125 -43.09375 13.21875 -43.671875 15.75 -43.671875 C 18.695312 -43.671875 21.4375 -43.039062 23.96875 -41.78125 L 23.96875 -35.25 L 23.8125 -35.1875 C 22.375 -36.457031 21.03125 -37.335938 19.78125 -37.828125 C 18.53125 -38.316406 17.1875 -38.5625 15.75 -38.5625 C 14.382812 -38.5625 13.191406 -38.28125 12.171875 -37.71875 C 11.148438 -37.15625 10.367188 -36.410156 9.828125 -35.484375 C 9.285156 -34.554688 9.015625 -33.566406 9.015625 -32.515625 C 9.015625 -30.890625 9.582031 -29.421875 10.71875 -28.109375 C 11.863281 -26.796875 13.894531 -25.328125 16.8125 -23.703125 C 19.125 -22.410156 20.945312 -21.21875 22.28125 -20.125 C 23.613281 -19.039062 24.601562 -17.828125 25.25 -16.484375 C 25.90625 -15.148438 26.234375 -13.570312 26.234375 -11.75 C 26.234375 -9.21875 25.597656 -7.019531 24.328125 -5.15625 C 23.066406 -3.300781 21.359375 -1.890625 19.203125 -0.921875 C 17.046875 0.046875 14.648438 0.53125 12.015625 0.53125 Z M 12.015625 0.53125 "/></g></g></g><g fill="#ffffff" fill-opacity="1"><g transform="translate(66.396812, 326.4316)"><g><path d="M 25.296875 -18.546875 C 25.296875 -17.171875 25.238281 -16.066406 25.125 -15.234375 L 8.328125 -14.75 C 8.460938 -11.269531 9.335938 -8.757812 10.953125 -7.21875 C 12.566406 -5.675781 14.625 -4.90625 17.125 -4.90625 C 18.320312 -4.90625 19.515625 -5.125 20.703125 -5.5625 C 21.898438 -6 23.253906 -6.742188 24.765625 -7.796875 L 24.875 -7.6875 L 22.8125 -1.109375 C 20.707031 -0.117188 18.390625 0.375 15.859375 0.375 C 11.460938 0.375 8.023438 -0.890625 5.546875 -3.421875 C 3.078125 -5.953125 1.84375 -9.691406 1.84375 -14.640625 C 1.84375 -17.984375 2.421875 -20.835938 3.578125 -23.203125 C 4.742188 -25.578125 6.328125 -27.378906 8.328125 -28.609375 C 10.328125 -29.835938 12.539062 -30.453125 14.96875 -30.453125 C 18.332031 -30.453125 20.894531 -29.394531 22.65625 -27.28125 C 24.414062 -25.175781 25.296875 -22.265625 25.296875 -18.546875 Z M 20.234375 -18.546875 C 20.234375 -21.109375 19.734375 -23.054688 18.734375 -24.390625 C 17.734375 -25.722656 16.265625 -26.390625 14.328125 -26.390625 C 10.847656 -26.390625 8.863281 -23.773438 8.375 -18.546875 Z M 17.5 -43 C 18.269531 -39.34375 19.671875 -36.125 21.703125 -33.34375 L 19.234375 -33.34375 C 17.015625 -34.96875 15.171875 -36.921875 13.703125 -39.203125 C 12.222656 -36.921875 10.378906 -34.96875 8.171875 -33.34375 L 5.6875 -33.34375 C 7.800781 -36.195312 9.222656 -39.414062 9.953125 -43 Z M 17.5 -43 "/></g></g></g><g fill="#ffffff" fill-opacity="1"><g transform="translate(93.528227, 326.4316)"><g><path d="M 3.109375 0 C 3.640625 -1.375 4.007812 -2.679688 4.21875 -3.921875 C 4.425781 -5.171875 4.53125 -6.585938 4.53125 -8.171875 L 4.53125 -21.859375 C 4.53125 -23.441406 4.441406 -24.847656 4.265625 -26.078125 C 4.085938 -27.304688 3.769531 -28.609375 3.3125 -29.984375 L 10.859375 -29.984375 C 10.640625 -28.785156 10.53125 -27.484375 10.53125 -26.078125 L 10.53125 -24.5 L 15.28125 -29.5 C 16.539062 -30.132812 18.066406 -30.453125 19.859375 -30.453125 C 22.140625 -30.453125 24.046875 -29.695312 25.578125 -28.1875 C 27.109375 -26.675781 27.875 -24.5 27.875 -21.65625 L 27.875 -8.171875 C 27.875 -6.585938 27.976562 -5.171875 28.1875 -3.921875 C 28.394531 -2.679688 28.765625 -1.375 29.296875 0 L 20.390625 0 C 20.953125 -1.375 21.335938 -2.675781 21.546875 -3.90625 C 21.753906 -5.132812 21.859375 -6.554688 21.859375 -8.171875 L 21.859375 -20.171875 C 21.859375 -21.578125 21.335938 -22.710938 20.296875 -23.578125 C 19.265625 -24.441406 17.941406 -24.875 16.328125 -24.875 C 15.421875 -24.875 14.507812 -24.710938 13.59375 -24.390625 C 12.675781 -24.078125 11.65625 -23.566406 10.53125 -22.859375 L 10.53125 -8.171875 C 10.53125 -6.554688 10.632812 -5.132812 10.84375 -3.90625 C 11.0625 -2.675781 11.453125 -1.375 12.015625 0 Z M 3.109375 0 "/></g></g></g><g fill="#ffffff" fill-opacity="1"><g transform="translate(125.453739, 326.4316)"><g><path d="M 7.59375 -42.40625 C 8.75 -42.40625 9.726562 -41.992188 10.53125 -41.171875 C 11.34375 -40.347656 11.75 -39.359375 11.75 -38.203125 C 11.75 -37.035156 11.34375 -36.039062 10.53125 -35.21875 C 9.726562 -34.394531 8.75 -33.984375 7.59375 -33.984375 C 6.394531 -33.984375 5.378906 -34.394531 4.546875 -35.21875 C 3.722656 -36.039062 3.3125 -37.035156 3.3125 -38.203125 C 3.3125 -39.359375 3.722656 -40.347656 4.546875 -41.171875 C 5.378906 -41.992188 6.394531 -42.40625 7.59375 -42.40625 Z M 12.015625 -29.984375 C 11.453125 -28.609375 11.0625 -27.304688 10.84375 -26.078125 C 10.632812 -24.847656 10.53125 -23.425781 10.53125 -21.8125 L 10.53125 -8.171875 C 10.53125 -6.554688 10.632812 -5.132812 10.84375 -3.90625 C 11.0625 -2.675781 11.453125 -1.375 12.015625 0 L 3.109375 0 C 3.640625 -1.375 4.007812 -2.679688 4.21875 -3.921875 C 4.425781 -5.171875 4.53125 -6.585938 4.53125 -8.171875 L 4.53125 -21.8125 C 4.53125 -23.394531 4.425781 -24.804688 4.21875 -26.046875 C 4.007812 -27.296875 3.640625 -28.609375 3.109375 -29.984375 Z M 12.015625 -29.984375 "/></g></g></g><g fill="#ffffff" fill-opacity="1"><g transform="translate(140.573573, 326.4316)"><g><path d="M 16.28125 -30.453125 C 18.988281 -30.453125 21.40625 -29.851562 23.53125 -28.65625 C 25.65625 -27.46875 27.320312 -25.726562 28.53125 -23.4375 C 29.738281 -21.15625 30.34375 -18.4375 30.34375 -15.28125 C 30.34375 -12.332031 29.648438 -9.660156 28.265625 -7.265625 C 26.878906 -4.878906 25.0625 -3.007812 22.8125 -1.65625 C 20.5625 -0.300781 18.207031 0.375 15.75 0.375 C 13.289062 0.375 11.007812 -0.148438 8.90625 -1.203125 C 6.800781 -2.265625 5.097656 -3.898438 3.796875 -6.109375 C 2.492188 -8.328125 1.84375 -11.066406 1.84375 -14.328125 C 1.84375 -17.492188 2.535156 -20.304688 3.921875 -22.765625 C 5.304688 -25.222656 7.113281 -27.117188 9.34375 -28.453125 C 11.582031 -29.785156 13.894531 -30.453125 16.28125 -30.453125 Z M 15.59375 -26.1875 C 14.289062 -26.1875 13.113281 -25.769531 12.0625 -24.9375 C 11.007812 -24.113281 10.175781 -22.90625 9.5625 -21.3125 C 8.945312 -19.71875 8.640625 -17.8125 8.640625 -15.59375 C 8.640625 -13.382812 9.007812 -11.414062 9.75 -9.6875 C 10.488281 -7.96875 11.476562 -6.597656 12.71875 -5.578125 C 13.96875 -4.566406 15.347656 -3.972656 16.859375 -3.796875 C 18.785156 -4.078125 20.378906 -5.195312 21.640625 -7.15625 C 22.910156 -9.125 23.546875 -11.65625 23.546875 -14.75 C 23.546875 -16.925781 23.1875 -18.882812 22.46875 -20.625 C 21.75 -22.363281 20.78125 -23.722656 19.5625 -24.703125 C 18.351562 -25.691406 17.03125 -26.1875 15.59375 -26.1875 Z M 15.59375 -26.1875 "/></g></g></g><g fill="#ffffff" fill-opacity="1"><g transform="translate(172.762503, 326.4316)"><g><path d="M 3.109375 0 C 3.640625 -1.375 4.007812 -2.679688 4.21875 -3.921875 C 4.425781 -5.171875 4.53125 -6.585938 4.53125 -8.171875 L 4.53125 -21.859375 C 4.53125 -23.441406 4.441406 -24.847656 4.265625 -26.078125 C 4.085938 -27.304688 3.769531 -28.609375 3.3125 -29.984375 L 10.859375 -29.984375 C 10.640625 -28.785156 10.53125 -27.484375 10.53125 -26.078125 L 10.53125 -22.96875 C 12.082031 -25.707031 13.523438 -27.617188 14.859375 -28.703125 C 16.191406 -29.796875 17.6875 -30.34375 19.34375 -30.34375 C 20.21875 -30.34375 20.953125 -30.222656 21.546875 -29.984375 L 20.765625 -22.65625 C 19.140625 -23.632812 17.734375 -24.125 16.546875 -24.125 C 14.328125 -24.125 12.320312 -23.085938 10.53125 -21.015625 L 10.53125 -8.171875 C 10.53125 -6.554688 10.632812 -5.132812 10.84375 -3.90625 C 11.0625 -2.675781 11.453125 -1.375 12.015625 0 Z M 3.109375 0 "/></g></g></g><g fill="#ffffff" fill-opacity="1"><g transform="translate(194.678375, 326.4316)"><g><path d="M 3.265625 0 C 3.859375 -1.894531 4.285156 -3.78125 4.546875 -5.65625 C 4.816406 -7.539062 4.953125 -9.78125 4.953125 -12.375 L 4.953125 -30.765625 C 4.953125 -33.367188 4.816406 -35.609375 4.546875 -37.484375 C 4.285156 -39.367188 3.859375 -41.257812 3.265625 -43.15625 L 12.90625 -43.15625 C 12.3125 -41.257812 11.878906 -39.367188 11.609375 -37.484375 C 11.347656 -35.609375 11.21875 -33.367188 11.21875 -30.765625 L 11.21875 -12.375 C 11.21875 -9.78125 11.347656 -7.539062 11.609375 -5.65625 C 11.878906 -3.78125 12.3125 -1.894531 12.90625 0 Z M 3.265625 0 "/></g></g></g><g fill="#ffffff" fill-opacity="1"><g transform="translate(210.851867, 326.4316)"><g><path d="M 3.109375 0 C 3.640625 -1.375 4.007812 -2.679688 4.21875 -3.921875 C 4.425781 -5.171875 4.53125 -6.585938 4.53125 -8.171875 L 4.53125 -21.859375 C 4.53125 -23.441406 4.441406 -24.847656 4.265625 -26.078125 C 4.085938 -27.304688 3.769531 -28.609375 3.3125 -29.984375 L 10.859375 -29.984375 C 10.640625 -28.785156 10.53125 -27.484375 10.53125 -26.078125 L 10.53125 -24.5 L 15.28125 -29.5 C 16.539062 -30.132812 18.066406 -30.453125 19.859375 -30.453125 C 22.140625 -30.453125 24.046875 -29.695312 25.578125 -28.1875 C 27.109375 -26.675781 27.875 -24.5 27.875 -21.65625 L 27.875 -8.171875 C 27.875 -6.585938 27.976562 -5.171875 28.1875 -3.921875 C 28.394531 -2.679688 28.765625 -1.375 29.296875 0 L 20.390625 0 C 20.953125 -1.375 21.335938 -2.675781 21.546875 -3.90625 C 21.753906 -5.132812 21.859375 -6.554688 21.859375 -8.171875 L 21.859375 -20.171875 C 21.859375 -21.578125 21.335938 -22.710938 20.296875 -23.578125 C 19.265625 -24.441406 17.941406 -24.875 16.328125 -24.875 C 15.421875 -24.875 14.507812 -24.710938 13.59375 -24.390625 C 12.675781 -24.078125 11.65625 -23.566406 10.53125 -22.859375 L 10.53125 -8.171875 C 10.53125 -6.554688 10.632812 -5.132812 10.84375 -3.90625 C 11.0625 -2.675781 11.453125 -1.375 12.015625 0 Z M 3.109375 0 "/></g></g></g><g fill="#ffffff" fill-opacity="1"><g transform="translate(242.250438, 326.4316)"><g><path d="M 27.03125 -29.984375 L 27.03125 -29.828125 C 26.1875 -28.660156 25.515625 -27.550781 25.015625 -26.5 C 24.523438 -25.445312 23.945312 -23.882812 23.28125 -21.8125 L 16.0625 0 L 9.90625 0 L 3.640625 -20.859375 C 3.035156 -22.753906 2.390625 -24.421875 1.703125 -25.859375 C 1.023438 -27.304688 0.210938 -28.628906 -0.734375 -29.828125 L -0.734375 -29.984375 L 9.0625 -29.984375 C 8.78125 -29.066406 8.640625 -28.097656 8.640625 -27.078125 C 8.640625 -26.378906 8.703125 -25.675781 8.828125 -24.96875 C 8.953125 -24.269531 9.1875 -23.320312 9.53125 -22.125 L 13.90625 -7.421875 L 18.921875 -22.4375 C 19.472656 -24.164062 19.75 -25.835938 19.75 -27.453125 C 19.75 -28.328125 19.628906 -29.171875 19.390625 -29.984375 Z M 27.03125 -29.984375 "/></g></g></g><g fill="#ffffff" fill-opacity="1"><g transform="translate(268.591613, 326.4316)"><g><path d="M 25.296875 -18.546875 C 25.296875 -17.171875 25.238281 -16.066406 25.125 -15.234375 L 8.328125 -14.75 C 8.460938 -11.269531 9.335938 -8.757812 10.953125 -7.21875 C 12.566406 -5.675781 14.625 -4.90625 17.125 -4.90625 C 18.320312 -4.90625 19.515625 -5.125 20.703125 -5.5625 C 21.898438 -6 23.253906 -6.742188 24.765625 -7.796875 L 24.875 -7.6875 L 22.8125 -1.109375 C 20.707031 -0.117188 18.390625 0.375 15.859375 0.375 C 11.460938 0.375 8.023438 -0.890625 5.546875 -3.421875 C 3.078125 -5.953125 1.84375 -9.691406 1.84375 -14.640625 C 1.84375 -17.984375 2.421875 -20.835938 3.578125 -23.203125 C 4.742188 -25.578125 6.328125 -27.378906 8.328125 -28.609375 C 10.328125 -29.835938 12.539062 -30.453125 14.96875 -30.453125 C 18.332031 -30.453125 20.894531 -29.394531 22.65625 -27.28125 C 24.414062 -25.175781 25.296875 -22.265625 25.296875 -18.546875 Z M 20.234375 -18.546875 C 20.234375 -21.109375 19.734375 -23.054688 18.734375 -24.390625 C 17.734375 -25.722656 16.265625 -26.390625 14.328125 -26.390625 C 10.847656 -26.390625 8.863281 -23.773438 8.375 -18.546875 Z M 20.234375 -18.546875 "/></g></g></g><g fill="#ffffff" fill-opacity="1"><g transform="translate(295.723015, 326.4316)"><g><path d="M 9.640625 0.375 C 8.234375 0.375 6.957031 0.285156 5.8125 0.109375 C 4.675781 -0.0664062 3.390625 -0.347656 1.953125 -0.734375 L 2.3125 -9.0625 L 2.46875 -9.0625 C 3.664062 -7.0625 4.765625 -5.664062 5.765625 -4.875 C 6.765625 -4.082031 7.96875 -3.6875 9.375 -3.6875 C 10.675781 -3.6875 11.664062 -4 12.34375 -4.625 C 13.03125 -5.257812 13.375 -6.175781 13.375 -7.375 C 13.375 -8.46875 13.050781 -9.40625 12.40625 -10.1875 C 11.757812 -10.976562 10.46875 -11.988281 8.53125 -13.21875 C 6.425781 -14.59375 4.957031 -15.945312 4.125 -17.28125 C 3.300781 -18.613281 2.890625 -20.160156 2.890625 -21.921875 C 2.890625 -23.535156 3.300781 -24.988281 4.125 -26.28125 C 4.957031 -27.582031 6.117188 -28.601562 7.609375 -29.34375 C 9.109375 -30.082031 10.820312 -30.453125 12.75 -30.453125 C 14.820312 -30.453125 16.769531 -30.15625 18.59375 -29.5625 L 18.59375 -23.875 L 18.4375 -23.875 C 17.3125 -24.820312 16.3125 -25.488281 15.4375 -25.875 C 14.5625 -26.257812 13.648438 -26.453125 12.703125 -26.453125 C 11.503906 -26.453125 10.578125 -26.160156 9.921875 -25.578125 C 9.273438 -24.992188 8.953125 -24.195312 8.953125 -23.1875 C 8.953125 -22.09375 9.296875 -21.132812 9.984375 -20.3125 C 10.671875 -19.488281 11.875 -18.550781 13.59375 -17.5 C 15.738281 -16.195312 17.265625 -14.867188 18.171875 -13.515625 C 19.085938 -12.160156 19.546875 -10.550781 19.546875 -8.6875 C 19.546875 -5.8125 18.613281 -3.582031 16.75 -2 C 14.894531 -0.414062 12.523438 0.375 9.640625 0.375 Z M 9.640625 0.375 "/></g></g></g><g fill="#ffffff" fill-opacity="1"><g transform="translate(317.059383, 326.4316)"><g><path d="M 10.796875 -29.984375 L 19.078125 -29.984375 L 19.078125 -26.03125 L 10.796875 -26.03125 L 10.796875 -8.171875 C 10.796875 -6.835938 11.101562 -5.878906 11.71875 -5.296875 C 12.332031 -4.710938 13.289062 -4.421875 14.59375 -4.421875 C 16.132812 -4.421875 17.851562 -4.722656 19.75 -5.328125 L 19.859375 -5.21875 L 16.234375 -0.15625 C 14.609375 0.15625 13.203125 0.3125 12.015625 0.3125 C 9.484375 0.3125 7.644531 -0.226562 6.5 -1.3125 C 5.363281 -2.40625 4.796875 -4.195312 4.796875 -6.6875 L 4.796875 -26.03125 L 0.953125 -26.03125 L 0.953125 -26.234375 L 10.59375 -36.453125 L 10.796875 -36.453125 Z M 10.796875 -29.984375 "/></g></g></g></svg>