<svg xmlns="http://www.w3.org/2000/svg" xmlns:xlink="http://www.w3.org/1999/xlink" width="500" zoomAndPan="magnify" viewBox="0 0 375 374.999991" height="500" preserveAspectRatio="xMidYMid meet" version="1.0"><defs><g/><clipPath id="fd354e1f61"><path d="M 182.097656 53.484375 L 209.5 53.484375 L 209.5 80.886719 L 182.097656 80.886719 Z M 182.097656 53.484375 " clip-rule="nonzero"/></clipPath><clipPath id="3891ad2caa"><path d="M 195.796875 53.484375 C 188.230469 53.484375 182.097656 59.621094 182.097656 67.1875 C 182.097656 74.753906 188.230469 80.886719 195.796875 80.886719 C 203.367188 80.886719 209.5 74.753906 209.5 67.1875 C 209.5 59.621094 203.367188 53.484375 195.796875 53.484375 Z M 195.796875 53.484375 " clip-rule="nonzero"/></clipPath><radialGradient gradientTransform="matrix(1, 0, 0, 1, 182.09735, 53.484899)" gradientUnits="userSpaceOnUse" r="19.376746" cx="13.701454" id="0e0f78951e" cy="13.701454" fx="13.701454" fy="13.701454"><stop stop-opacity="1" stop-color="rgb(5.148315%, 72.044373%, 19.599915%)" offset="0"/><stop stop-opacity="1" stop-color="rgb(5.221558%, 71.815491%, 19.599915%)" offset="0.0078125"/><stop stop-opacity="1" stop-color="rgb(5.270386%, 71.661377%, 19.599915%)" offset="0.0117188"/><stop stop-opacity="1" stop-color="rgb(5.319214%, 71.507263%, 19.599915%)" offset="0.015625"/><stop stop-opacity="1" stop-color="rgb(5.368042%, 71.354675%, 19.599915%)" offset="0.0195312"/><stop stop-opacity="1" stop-color="rgb(5.41687%, 71.200562%, 19.599915%)" offset="0.0234375"/><stop stop-opacity="1" stop-color="rgb(5.465698%, 71.047974%, 19.599915%)" offset="0.0273438"/><stop stop-opacity="1" stop-color="rgb(5.514526%, 70.89386%, 19.599915%)" offset="0.03125"/><stop stop-opacity="1" stop-color="rgb(5.563354%, 70.739746%, 19.599915%)" offset="0.0351562"/><stop stop-opacity="1" stop-color="rgb(5.612183%, 70.587158%, 19.599915%)" offset="0.0390625"/><stop stop-opacity="1" stop-color="rgb(5.661011%, 70.433044%, 19.599915%)" offset="0.0429688"/><stop stop-opacity="1" stop-color="rgb(5.709839%, 70.280457%, 19.599915%)" offset="0.046875"/><stop stop-opacity="1" stop-color="rgb(5.758667%, 70.126343%, 19.599915%)" offset="0.0507812"/><stop stop-opacity="1" stop-color="rgb(5.807495%, 69.972229%, 19.599915%)" offset="0.0546875"/><stop stop-opacity="1" stop-color="rgb(5.856323%, 69.819641%, 19.599915%)" offset="0.0585938"/><stop stop-opacity="1" stop-color="rgb(5.905151%, 69.665527%, 19.599915%)" offset="0.0625"/><stop stop-opacity="1" stop-color="rgb(5.953979%, 69.512939%, 19.599915%)" offset="0.0664062"/><stop stop-opacity="1" stop-color="rgb(6.002808%, 69.358826%, 19.599915%)" offset="0.0703125"/><stop stop-opacity="1" stop-color="rgb(6.051636%, 69.204712%, 19.599915%)" offset="0.0742188"/><stop stop-opacity="1" stop-color="rgb(6.100464%, 69.052124%, 19.599915%)" offset="0.078125"/><stop stop-opacity="1" stop-color="rgb(6.149292%, 68.89801%, 19.599915%)" offset="0.0820312"/><stop stop-opacity="1" stop-color="rgb(6.19812%, 68.745422%, 19.599915%)" offset="0.0859375"/><stop stop-opacity="1" stop-color="rgb(6.246948%, 68.591309%, 19.599915%)" offset="0.0898438"/><stop stop-opacity="1" stop-color="rgb(6.295776%, 68.437195%, 19.599915%)" offset="0.09375"/><stop stop-opacity="1" stop-color="rgb(6.344604%, 68.284607%, 19.599915%)" offset="0.0976562"/><stop stop-opacity="1" stop-color="rgb(6.393433%, 68.130493%, 19.599915%)" offset="0.101562"/><stop stop-opacity="1" stop-color="rgb(6.442261%, 67.976379%, 19.599915%)" offset="0.105469"/><stop stop-opacity="1" stop-color="rgb(6.491089%, 67.823792%, 19.599915%)" offset="0.109375"/><stop stop-opacity="1" stop-color="rgb(6.539917%, 67.669678%, 19.599915%)" offset="0.113281"/><stop stop-opacity="1" stop-color="rgb(6.588745%, 67.51709%, 19.599915%)" offset="0.117188"/><stop stop-opacity="1" stop-color="rgb(6.637573%, 67.362976%, 19.599915%)" offset="0.121094"/><stop stop-opacity="1" stop-color="rgb(6.686401%, 67.208862%, 19.599915%)" offset="0.125"/><stop stop-opacity="1" stop-color="rgb(6.735229%, 67.056274%, 19.599915%)" offset="0.128906"/><stop stop-opacity="1" stop-color="rgb(6.784058%, 66.902161%, 19.599915%)" offset="0.132812"/><stop stop-opacity="1" stop-color="rgb(6.832886%, 66.749573%, 19.599915%)" offset="0.136719"/><stop stop-opacity="1" stop-color="rgb(6.881714%, 66.595459%, 19.599915%)" offset="0.140625"/><stop stop-opacity="1" stop-color="rgb(6.930542%, 66.441345%, 19.599915%)" offset="0.144531"/><stop stop-opacity="1" stop-color="rgb(6.97937%, 66.288757%, 19.599915%)" offset="0.148438"/><stop stop-opacity="1" stop-color="rgb(7.028198%, 66.134644%, 19.599915%)" offset="0.152344"/><stop stop-opacity="1" stop-color="rgb(7.077026%, 65.982056%, 19.599915%)" offset="0.15625"/><stop stop-opacity="1" stop-color="rgb(7.125854%, 65.827942%, 19.599915%)" offset="0.160156"/><stop stop-opacity="1" stop-color="rgb(7.174683%, 65.673828%, 19.599915%)" offset="0.164062"/><stop stop-opacity="1" stop-color="rgb(7.223511%, 65.52124%, 19.599915%)" offset="0.167969"/><stop stop-opacity="1" stop-color="rgb(7.272339%, 65.367126%, 19.599915%)" offset="0.171875"/><stop stop-opacity="1" stop-color="rgb(7.321167%, 65.214539%, 19.599915%)" offset="0.175781"/><stop stop-opacity="1" stop-color="rgb(7.369995%, 65.060425%, 19.599915%)" offset="0.179688"/><stop stop-opacity="1" stop-color="rgb(7.418823%, 64.906311%, 19.599915%)" offset="0.183594"/><stop stop-opacity="1" stop-color="rgb(7.467651%, 64.753723%, 19.599915%)" offset="0.1875"/><stop stop-opacity="1" stop-color="rgb(7.516479%, 64.599609%, 19.599915%)" offset="0.191406"/><stop stop-opacity="1" stop-color="rgb(7.565308%, 64.445496%, 19.599915%)" offset="0.195312"/><stop stop-opacity="1" stop-color="rgb(7.614136%, 64.292908%, 19.599915%)" offset="0.199219"/><stop stop-opacity="1" stop-color="rgb(7.662964%, 64.138794%, 19.599915%)" offset="0.203125"/><stop stop-opacity="1" stop-color="rgb(7.711792%, 63.986206%, 19.599915%)" offset="0.207031"/><stop stop-opacity="1" stop-color="rgb(7.76062%, 63.832092%, 19.599915%)" offset="0.210938"/><stop stop-opacity="1" stop-color="rgb(7.809448%, 63.677979%, 19.599915%)" offset="0.214844"/><stop stop-opacity="1" stop-color="rgb(7.858276%, 63.525391%, 19.599915%)" offset="0.21875"/><stop stop-opacity="1" stop-color="rgb(7.907104%, 63.371277%, 19.599915%)" offset="0.222656"/><stop stop-opacity="1" stop-color="rgb(7.955933%, 63.218689%, 19.599915%)" offset="0.226562"/><stop stop-opacity="1" stop-color="rgb(8.004761%, 63.064575%, 19.599915%)" offset="0.230469"/><stop stop-opacity="1" stop-color="rgb(8.053589%, 62.910461%, 19.599915%)" offset="0.234375"/><stop stop-opacity="1" stop-color="rgb(8.102417%, 62.757874%, 19.599915%)" offset="0.238281"/><stop stop-opacity="1" stop-color="rgb(8.151245%, 62.60376%, 19.599915%)" offset="0.242188"/><stop stop-opacity="1" stop-color="rgb(8.200073%, 62.451172%, 19.599915%)" offset="0.246094"/><stop stop-opacity="1" stop-color="rgb(8.248901%, 62.297058%, 19.599915%)" offset="0.25"/><stop stop-opacity="1" stop-color="rgb(8.322144%, 62.06665%, 19.599915%)" offset="0.253906"/><stop stop-opacity="1" stop-color="rgb(8.4198%, 61.759949%, 19.599915%)" offset="0.261719"/><stop stop-opacity="1" stop-color="rgb(8.517456%, 61.453247%, 19.599915%)" offset="0.269531"/><stop stop-opacity="1" stop-color="rgb(8.615112%, 61.14502%, 19.599915%)" offset="0.277344"/><stop stop-opacity="1" stop-color="rgb(8.712769%, 60.838318%, 19.599915%)" offset="0.285156"/><stop stop-opacity="1" stop-color="rgb(8.810425%, 60.531616%, 19.599915%)" offset="0.292969"/><stop stop-opacity="1" stop-color="rgb(8.908081%, 60.224915%, 19.599915%)" offset="0.300781"/><stop stop-opacity="1" stop-color="rgb(9.005737%, 59.916687%, 19.599915%)" offset="0.308594"/><stop stop-opacity="1" stop-color="rgb(9.103394%, 59.609985%, 19.599915%)" offset="0.316406"/><stop stop-opacity="1" stop-color="rgb(9.20105%, 59.303284%, 19.599915%)" offset="0.324219"/><stop stop-opacity="1" stop-color="rgb(9.298706%, 58.996582%, 19.599915%)" offset="0.332031"/><stop stop-opacity="1" stop-color="rgb(9.396362%, 58.68988%, 19.599915%)" offset="0.339844"/><stop stop-opacity="1" stop-color="rgb(9.494019%, 58.381653%, 19.599915%)" offset="0.347656"/><stop stop-opacity="1" stop-color="rgb(9.591675%, 58.074951%, 19.599915%)" offset="0.355469"/><stop stop-opacity="1" stop-color="rgb(9.689331%, 57.76825%, 19.599915%)" offset="0.363281"/><stop stop-opacity="1" stop-color="rgb(9.786987%, 57.461548%, 19.599915%)" offset="0.371094"/><stop stop-opacity="1" stop-color="rgb(9.884644%, 57.154846%, 19.599915%)" offset="0.378906"/><stop stop-opacity="1" stop-color="rgb(9.9823%, 56.846619%, 19.599915%)" offset="0.386719"/><stop stop-opacity="1" stop-color="rgb(10.079956%, 56.539917%, 19.599915%)" offset="0.394531"/><stop stop-opacity="1" stop-color="rgb(10.177612%, 56.233215%, 19.599915%)" offset="0.402344"/><stop stop-opacity="1" stop-color="rgb(10.275269%, 55.926514%, 19.599915%)" offset="0.410156"/><stop stop-opacity="1" stop-color="rgb(10.372925%, 55.618286%, 19.599915%)" offset="0.417969"/><stop stop-opacity="1" stop-color="rgb(10.470581%, 55.311584%, 19.599915%)" offset="0.425781"/><stop stop-opacity="1" stop-color="rgb(10.568237%, 55.004883%, 19.599915%)" offset="0.433594"/><stop stop-opacity="1" stop-color="rgb(10.665894%, 54.698181%, 19.599915%)" offset="0.441406"/><stop stop-opacity="1" stop-color="rgb(10.76355%, 54.391479%, 19.599915%)" offset="0.449219"/><stop stop-opacity="1" stop-color="rgb(10.861206%, 54.083252%, 19.599915%)" offset="0.457031"/><stop stop-opacity="1" stop-color="rgb(10.958862%, 53.77655%, 19.599915%)" offset="0.464844"/><stop stop-opacity="1" stop-color="rgb(11.056519%, 53.469849%, 19.599915%)" offset="0.472656"/><stop stop-opacity="1" stop-color="rgb(11.154175%, 53.163147%, 19.599915%)" offset="0.480469"/><stop stop-opacity="1" stop-color="rgb(11.251831%, 52.854919%, 19.599915%)" offset="0.488281"/><stop stop-opacity="1" stop-color="rgb(11.349487%, 52.548218%, 19.599915%)" offset="0.496094"/><stop stop-opacity="1" stop-color="rgb(11.422729%, 52.31781%, 19.599915%)" offset="0.503906"/><stop stop-opacity="1" stop-color="rgb(11.471558%, 52.165222%, 19.599915%)" offset="0.507812"/><stop stop-opacity="1" stop-color="rgb(11.520386%, 52.011108%, 19.599915%)" offset="0.511719"/><stop stop-opacity="1" stop-color="rgb(11.569214%, 51.858521%, 19.599915%)" offset="0.515625"/><stop stop-opacity="1" stop-color="rgb(11.618042%, 51.704407%, 19.599915%)" offset="0.519531"/><stop stop-opacity="1" stop-color="rgb(11.66687%, 51.550293%, 19.599915%)" offset="0.523438"/><stop stop-opacity="1" stop-color="rgb(11.715698%, 51.397705%, 19.599915%)" offset="0.527344"/><stop stop-opacity="1" stop-color="rgb(11.764526%, 51.243591%, 19.599915%)" offset="0.53125"/><stop stop-opacity="1" stop-color="rgb(11.813354%, 51.091003%, 19.599915%)" offset="0.535156"/><stop stop-opacity="1" stop-color="rgb(11.862183%, 50.93689%, 19.599915%)" offset="0.539062"/><stop stop-opacity="1" stop-color="rgb(11.911011%, 50.782776%, 19.599915%)" offset="0.542969"/><stop stop-opacity="1" stop-color="rgb(11.959839%, 50.630188%, 19.599915%)" offset="0.546875"/><stop stop-opacity="1" stop-color="rgb(12.008667%, 50.476074%, 19.599915%)" offset="0.550781"/><stop stop-opacity="1" stop-color="rgb(12.057495%, 50.323486%, 19.599915%)" offset="0.554688"/><stop stop-opacity="1" stop-color="rgb(12.106323%, 50.169373%, 19.599915%)" offset="0.558594"/><stop stop-opacity="1" stop-color="rgb(12.155151%, 50.015259%, 19.599915%)" offset="0.5625"/><stop stop-opacity="1" stop-color="rgb(12.203979%, 49.862671%, 19.599915%)" offset="0.566406"/><stop stop-opacity="1" stop-color="rgb(12.252808%, 49.708557%, 19.599915%)" offset="0.570312"/><stop stop-opacity="1" stop-color="rgb(12.301636%, 49.555969%, 19.599915%)" offset="0.574219"/><stop stop-opacity="1" stop-color="rgb(12.350464%, 49.401855%, 19.599915%)" offset="0.578125"/><stop stop-opacity="1" stop-color="rgb(12.399292%, 49.247742%, 19.599915%)" offset="0.582031"/><stop stop-opacity="1" stop-color="rgb(12.44812%, 49.095154%, 19.599915%)" offset="0.585938"/><stop stop-opacity="1" stop-color="rgb(12.496948%, 48.94104%, 19.599915%)" offset="0.589844"/><stop stop-opacity="1" stop-color="rgb(12.545776%, 48.786926%, 19.599915%)" offset="0.59375"/><stop stop-opacity="1" stop-color="rgb(12.594604%, 48.634338%, 19.599915%)" offset="0.597656"/><stop stop-opacity="1" stop-color="rgb(12.643433%, 48.480225%, 19.599915%)" offset="0.601562"/><stop stop-opacity="1" stop-color="rgb(12.692261%, 48.327637%, 19.599915%)" offset="0.605469"/><stop stop-opacity="1" stop-color="rgb(12.741089%, 48.173523%, 19.599915%)" offset="0.609375"/><stop stop-opacity="1" stop-color="rgb(12.789917%, 48.019409%, 19.599915%)" offset="0.613281"/><stop stop-opacity="1" stop-color="rgb(12.838745%, 47.866821%, 19.599915%)" offset="0.617188"/><stop stop-opacity="1" stop-color="rgb(12.887573%, 47.712708%, 19.599915%)" offset="0.621094"/><stop stop-opacity="1" stop-color="rgb(12.936401%, 47.56012%, 19.599915%)" offset="0.625"/><stop stop-opacity="1" stop-color="rgb(13.009644%, 47.329712%, 19.599915%)" offset="0.628906"/><stop stop-opacity="1" stop-color="rgb(13.1073%, 47.021484%, 19.599915%)" offset="0.636719"/><stop stop-opacity="1" stop-color="rgb(13.204956%, 46.714783%, 19.599915%)" offset="0.644531"/><stop stop-opacity="1" stop-color="rgb(13.302612%, 46.408081%, 19.599915%)" offset="0.652344"/><stop stop-opacity="1" stop-color="rgb(13.400269%, 46.101379%, 19.599915%)" offset="0.660156"/><stop stop-opacity="1" stop-color="rgb(13.497925%, 45.794678%, 19.599915%)" offset="0.667969"/><stop stop-opacity="1" stop-color="rgb(13.595581%, 45.48645%, 19.599915%)" offset="0.675781"/><stop stop-opacity="1" stop-color="rgb(13.693237%, 45.179749%, 19.599915%)" offset="0.683594"/><stop stop-opacity="1" stop-color="rgb(13.790894%, 44.873047%, 19.599915%)" offset="0.691406"/><stop stop-opacity="1" stop-color="rgb(13.88855%, 44.566345%, 19.599915%)" offset="0.699219"/><stop stop-opacity="1" stop-color="rgb(13.986206%, 44.258118%, 19.599915%)" offset="0.707031"/><stop stop-opacity="1" stop-color="rgb(14.083862%, 43.951416%, 19.599915%)" offset="0.714844"/><stop stop-opacity="1" stop-color="rgb(14.181519%, 43.644714%, 19.599915%)" offset="0.722656"/><stop stop-opacity="1" stop-color="rgb(14.279175%, 43.338013%, 19.599915%)" offset="0.730469"/><stop stop-opacity="1" stop-color="rgb(14.376831%, 43.031311%, 19.599915%)" offset="0.738281"/><stop stop-opacity="1" stop-color="rgb(14.474487%, 42.723083%, 19.599915%)" offset="0.746094"/><stop stop-opacity="1" stop-color="rgb(14.547729%, 42.494202%, 19.599915%)" offset="0.753906"/><stop stop-opacity="1" stop-color="rgb(14.596558%, 42.340088%, 19.599915%)" offset="0.757812"/><stop stop-opacity="1" stop-color="rgb(14.645386%, 42.185974%, 19.599915%)" offset="0.761719"/><stop stop-opacity="1" stop-color="rgb(14.694214%, 42.033386%, 19.599915%)" offset="0.765625"/><stop stop-opacity="1" stop-color="rgb(14.743042%, 41.879272%, 19.599915%)" offset="0.769531"/><stop stop-opacity="1" stop-color="rgb(14.79187%, 41.726685%, 19.599915%)" offset="0.773438"/><stop stop-opacity="1" stop-color="rgb(14.840698%, 41.572571%, 19.599915%)" offset="0.777344"/><stop stop-opacity="1" stop-color="rgb(14.889526%, 41.418457%, 19.599915%)" offset="0.78125"/><stop stop-opacity="1" stop-color="rgb(14.938354%, 41.265869%, 19.599915%)" offset="0.785156"/><stop stop-opacity="1" stop-color="rgb(14.987183%, 41.111755%, 19.599915%)" offset="0.789062"/><stop stop-opacity="1" stop-color="rgb(15.036011%, 40.957642%, 19.599915%)" offset="0.792969"/><stop stop-opacity="1" stop-color="rgb(15.084839%, 40.805054%, 19.599915%)" offset="0.796875"/><stop stop-opacity="1" stop-color="rgb(15.133667%, 40.65094%, 19.599915%)" offset="0.800781"/><stop stop-opacity="1" stop-color="rgb(15.182495%, 40.498352%, 19.599915%)" offset="0.804688"/><stop stop-opacity="1" stop-color="rgb(15.231323%, 40.344238%, 19.599915%)" offset="0.808594"/><stop stop-opacity="1" stop-color="rgb(15.280151%, 40.190125%, 19.599915%)" offset="0.8125"/><stop stop-opacity="1" stop-color="rgb(15.353394%, 39.959717%, 19.599915%)" offset="0.816406"/><stop stop-opacity="1" stop-color="rgb(15.45105%, 39.653015%, 19.599915%)" offset="0.824219"/><stop stop-opacity="1" stop-color="rgb(15.548706%, 39.346313%, 19.599915%)" offset="0.832031"/><stop stop-opacity="1" stop-color="rgb(15.646362%, 39.039612%, 19.599915%)" offset="0.839844"/><stop stop-opacity="1" stop-color="rgb(15.744019%, 38.73291%, 19.599915%)" offset="0.847656"/><stop stop-opacity="1" stop-color="rgb(15.841675%, 38.424683%, 19.599915%)" offset="0.855469"/><stop stop-opacity="1" stop-color="rgb(15.939331%, 38.117981%, 19.599915%)" offset="0.863281"/><stop stop-opacity="1" stop-color="rgb(16.036987%, 37.811279%, 19.599915%)" offset="0.871094"/><stop stop-opacity="1" stop-color="rgb(16.110229%, 37.580872%, 19.599915%)" offset="0.878906"/><stop stop-opacity="1" stop-color="rgb(16.159058%, 37.426758%, 19.599915%)" offset="0.882812"/><stop stop-opacity="1" stop-color="rgb(16.207886%, 37.27417%, 19.599915%)" offset="0.886719"/><stop stop-opacity="1" stop-color="rgb(16.256714%, 37.120056%, 19.599915%)" offset="0.890625"/><stop stop-opacity="1" stop-color="rgb(16.305542%, 36.967468%, 19.599915%)" offset="0.894531"/><stop stop-opacity="1" stop-color="rgb(16.35437%, 36.813354%, 19.599915%)" offset="0.898438"/><stop stop-opacity="1" stop-color="rgb(16.403198%, 36.659241%, 19.599915%)" offset="0.902344"/><stop stop-opacity="1" stop-color="rgb(16.452026%, 36.506653%, 19.599915%)" offset="0.90625"/><stop stop-opacity="1" stop-color="rgb(16.525269%, 36.276245%, 19.599915%)" offset="0.910156"/><stop stop-opacity="1" stop-color="rgb(16.622925%, 35.969543%, 19.599915%)" offset="0.917969"/><stop stop-opacity="1" stop-color="rgb(16.720581%, 35.661316%, 19.599915%)" offset="0.925781"/><stop stop-opacity="1" stop-color="rgb(16.818237%, 35.354614%, 19.599915%)" offset="0.933594"/><stop stop-opacity="1" stop-color="rgb(16.891479%, 35.124207%, 19.599915%)" offset="0.941406"/><stop stop-opacity="1" stop-color="rgb(16.940308%, 34.971619%, 19.599915%)" offset="0.945312"/><stop stop-opacity="1" stop-color="rgb(16.989136%, 34.817505%, 19.599915%)" offset="0.949219"/><stop stop-opacity="1" stop-color="rgb(17.037964%, 34.664917%, 19.599915%)" offset="0.953125"/><stop stop-opacity="1" stop-color="rgb(17.111206%, 34.434509%, 19.599915%)" offset="0.957031"/><stop stop-opacity="1" stop-color="rgb(17.208862%, 34.126282%, 19.599915%)" offset="0.964844"/><stop stop-opacity="1" stop-color="rgb(17.282104%, 33.895874%, 19.599915%)" offset="0.972656"/><stop stop-opacity="1" stop-color="rgb(17.330933%, 33.743286%, 19.599915%)" offset="0.976562"/><stop stop-opacity="1" stop-color="rgb(17.404175%, 33.512878%, 19.599915%)" offset="0.980469"/><stop stop-opacity="1" stop-color="rgb(17.477417%, 33.282471%, 19.599915%)" offset="0.988281"/><stop stop-opacity="1" stop-color="rgb(17.550659%, 33.052063%, 19.599915%)" offset="0.992188"/><stop stop-opacity="1" stop-color="rgb(17.599487%, 32.899475%, 19.599915%)" offset="1"/></radialGradient><clipPath id="68cf15461b"><path d="M 91.414062 128.8125 L 109.269531 128.8125 L 109.269531 146.671875 L 91.414062 146.671875 Z M 91.414062 128.8125 " clip-rule="nonzero"/></clipPath><clipPath id="01b95b6ce6"><path d="M 100.34375 128.8125 C 95.410156 128.8125 91.414062 132.8125 91.414062 137.742188 C 91.414062 142.671875 95.410156 146.671875 100.34375 146.671875 C 105.273438 146.671875 109.269531 142.671875 109.269531 137.742188 C 109.269531 132.8125 105.273438 128.8125 100.34375 128.8125 Z M 100.34375 128.8125 " clip-rule="nonzero"/></clipPath></defs><g fill="#000000" fill-opacity="1"><g transform="translate(147.507007, 300.316929)"><g><path d="M 79.125 -2.453125 L 82.3125 -2.453125 L 82.3125 0 L 28.5 0 L 28.5 -2.453125 L 31.703125 -2.453125 C 35.960938 -2.453125 39.644531 -3.96875 42.75 -7 C 45.863281 -10.03125 47.421875 -13.675781 47.421875 -17.9375 L 47.421875 -165.359375 L 21.140625 -163.890625 C 4.585938 -162.898438 -3.6875 -156.921875 -3.6875 -145.953125 C -3.6875 -141.523438 -2.253906 -137.753906 0.609375 -134.640625 C 3.484375 -131.535156 8.03125 -129.816406 14.25 -129.484375 L 14.25 -128.015625 C 11.957031 -127.523438 9.664062 -127.28125 7.375 -127.28125 C 0.164062 -127.28125 -5.238281 -130.144531 -8.84375 -135.875 C -10.96875 -139.144531 -12.03125 -142.75 -12.03125 -146.6875 C -12.03125 -160.601562 -1.46875 -168.710938 19.65625 -171.015625 C 19.820312 -171.015625 27.972656 -171.546875 44.109375 -172.609375 C 60.242188 -173.671875 72.976562 -175.101562 82.3125 -176.90625 L 82.8125 -174.453125 C 75.757812 -173.304688 70.757812 -170.929688 67.8125 -167.328125 C 64.863281 -163.722656 63.390625 -158.726562 63.390625 -152.34375 L 63.390625 -17.9375 C 63.554688 -13.675781 65.15625 -10.03125 68.1875 -7 C 71.21875 -3.96875 74.863281 -2.453125 79.125 -2.453125 Z M 79.125 -2.453125 "/></g></g></g><g clip-path="url(#fd354e1f61)"><g clip-path="url(#3891ad2caa)"><path fill="url(#0e0f78951e)" d="M 182.097656 53.484375 L 182.097656 80.886719 L 209.5 80.886719 L 209.5 53.484375 Z M 182.097656 53.484375 " fill-rule="nonzero"/></g></g><g clip-path="url(#68cf15461b)"><g clip-path="url(#01b95b6ce6)"><path fill="#000000" d="M 91.414062 128.8125 L 109.269531 128.8125 L 109.269531 146.671875 L 91.414062 146.671875 Z M 91.414062 128.8125 " fill-opacity="1" fill-rule="nonzero"/></g></g><g fill="#008d49" fill-opacity="1"><g transform="translate(71.300705, 213.591166)"><g><path d="M 26.984375 -60.3125 C 19.117188 -50.039062 15.1875 -38.929688 15.1875 -26.984375 C 15.1875 -12.773438 21.160156 -1.738281 33.109375 6.125 C 40.054688 10.8125 47.953125 13.15625 56.796875 13.15625 C 65.648438 13.15625 73.328125 11.414062 79.828125 7.9375 C 92.066406 1.582031 98.941406 -9.070312 100.453125 -24.03125 C 100.609375 -25.09375 100.6875 -26.15625 100.6875 -27.21875 C 100.6875 -32.8125 99.132812 -38.859375 96.03125 -45.359375 C 92.9375 -51.859375 87.910156 -57.828125 80.953125 -63.265625 L 40.140625 -95.46875 C 31.222656 -102.425781 26.765625 -111.421875 26.765625 -122.453125 C 26.765625 -133.484375 30.316406 -142.816406 37.421875 -150.453125 C 44.523438 -158.085938 54.125 -161.90625 66.21875 -161.90625 C 72.257812 -161.90625 78.832031 -161.148438 85.9375 -159.640625 L 95.015625 -159.640625 L 95.46875 -131.75 L 93.203125 -131.75 C 93.046875 -139.007812 90.4375 -144.71875 85.375 -148.875 C 80.3125 -153.03125 73.960938 -155.109375 66.328125 -155.109375 C 58.691406 -155.109375 52.300781 -152.578125 47.15625 -147.515625 C 42.019531 -142.453125 39.453125 -135.953125 39.453125 -128.015625 C 39.453125 -120.078125 42.78125 -113.460938 49.4375 -108.171875 L 91.390625 -75.0625 C 108.015625 -61.90625 116.328125 -46.03125 116.328125 -27.4375 C 116.328125 -13.53125 110.8125 -1.585938 99.78125 8.390625 C 90.25 17.003906 77.550781 21.3125 61.6875 21.3125 C 52.007812 21.3125 43.390625 19.5 35.828125 15.875 C 21.617188 9.21875 13.078125 -2.117188 10.203125 -18.140625 C 9.753906 -20.554688 9.53125 -23.613281 9.53125 -27.3125 C 9.53125 -31.019531 10.585938 -36.085938 12.703125 -42.515625 C 14.816406 -48.941406 18.894531 -55.40625 24.9375 -61.90625 Z M 26.984375 -60.3125 "/></g></g></g><path stroke-linecap="butt" transform="matrix(0.75, 0, 0, 0.75, 37.521312, 269.271837)" fill="none" stroke-linejoin="miter" d="M 16.039294 75.705264 C 11.544502 75.705264 7.48721 74.955264 3.872626 73.455264 L 3.872626 61.793805 L 4.164293 61.793805 C 6.601793 64.606305 8.732001 66.549014 10.54971 67.62193 C 12.377835 68.700056 14.48721 69.236514 16.877835 69.236514 C 19.403877 69.236514 21.534086 68.429222 23.258044 66.819847 C 24.997627 65.205264 25.867419 63.179222 25.867419 60.74693 C 25.867419 59.382347 25.549711 58.142763 24.924711 57.022971 C 24.294502 55.892763 23.190336 54.731305 21.612211 53.538596 C 20.044502 52.340679 17.810127 50.924013 14.903877 49.288596 C 10.742418 46.944846 7.804918 44.543804 6.086168 42.080262 C 4.383043 39.621929 3.534084 36.637553 3.534084 33.127137 C 3.534084 30.361511 4.268459 27.715678 5.742418 25.184428 C 7.221585 22.658386 9.289293 20.621927 11.95596 19.080261 C 14.627835 17.522969 17.653877 16.746927 21.028877 16.746927 C 24.961169 16.746927 28.617419 17.595886 31.987211 19.288594 L 31.987211 28.002136 L 31.768461 28.069845 C 29.846586 26.377136 28.054919 25.205261 26.398669 24.554219 C 24.737211 23.897969 22.950752 23.575053 21.028877 23.575053 C 19.200752 23.575053 17.601794 23.950053 16.242419 24.705261 C 14.883043 25.450053 13.836168 26.444844 13.101793 27.689636 C 12.383043 28.924011 12.023668 30.246928 12.023668 31.653178 C 12.023668 33.80422 12.784085 35.757345 14.304918 37.517762 C 15.836169 39.267762 18.544502 41.226095 22.435127 43.387554 C 25.523669 45.111512 27.950753 46.705262 29.726794 48.153179 C 31.508045 49.606304 32.83617 51.226096 33.705961 53.007346 C 34.575753 54.793805 35.008045 56.90318 35.008045 59.34068 C 35.008045 62.710472 34.164295 65.637555 32.471586 68.121931 C 30.789295 70.601097 28.508044 72.491722 25.627836 73.783389 C 22.742419 75.064639 19.54971 75.705264 16.039294 75.705264 Z M 72.237214 50.262554 C 72.237214 52.095888 72.169506 53.569846 72.028881 54.689638 L 49.612212 55.325055 C 49.804921 59.96568 50.976796 63.319847 53.127838 65.377139 C 55.278879 67.43443 58.018463 68.465681 61.34138 68.465681 C 62.93513 68.465681 64.523672 68.174014 66.112214 67.59068 C 67.711172 67.007347 69.518464 66.012555 71.534089 64.606305 L 71.669506 64.741722 L 68.940339 73.522973 C 66.127839 74.840681 63.034088 75.496931 59.664296 75.496931 C 53.810129 75.496931 49.226796 73.809431 45.924712 70.439639 C 42.61742 67.064639 40.966379 62.069847 40.966379 55.460471 C 40.966379 51.012554 41.737212 47.210471 43.278879 44.054221 C 44.83617 40.887554 46.945546 38.486512 49.612212 36.851095 C 52.289296 35.215678 55.237213 34.39797 58.461171 34.39797 C 62.955963 34.39797 66.377839 35.80422 68.721589 38.61672 C 71.065339 41.418804 72.237214 45.304221 72.237214 50.262554 Z M 65.492422 50.262554 C 65.492422 46.845887 64.825755 44.252137 63.487213 42.476095 C 62.148672 40.694845 60.195546 39.799012 57.62263 39.799012 C 52.992421 39.799012 50.341379 43.288596 49.679921 50.262554 Z M 61.84138 17.674011 C 62.87263 22.543803 64.742422 26.830261 67.450755 30.52297 L 64.159088 30.52297 C 61.205963 28.371928 58.74763 25.778178 56.77888 22.731303 C 54.815338 25.778178 52.357004 28.371928 49.403879 30.52297 L 46.096587 30.52297 C 48.909087 26.726094 50.804921 22.439636 51.789296 17.674011 Z M 78.841381 75.002139 C 79.539298 73.168806 80.023673 71.424014 80.299714 69.767764 C 80.586173 68.101097 80.726798 66.210472 80.726798 64.106305 L 80.726798 45.840679 C 80.726798 43.736512 80.607006 41.86672 80.367423 40.231304 C 80.138256 38.58547 79.721589 36.845887 79.117423 35.017762 L 89.169507 35.017762 C 88.883048 36.61672 88.742423 38.351095 88.742423 40.21047 L 88.742423 42.325054 L 95.070549 35.64797 C 96.752841 34.814637 98.784091 34.39797 101.174716 34.39797 C 104.216383 34.39797 106.75805 35.403178 108.794508 37.418804 C 110.841383 39.42922 111.862217 42.33547 111.862217 46.132346 L 111.862217 64.106305 C 111.862217 66.210472 111.997633 68.101097 112.273675 69.767764 C 112.560133 71.424014 113.049717 73.168806 113.747633 75.002139 L 101.877841 75.002139 C 102.633049 73.168806 103.148674 71.439639 103.424716 69.804222 C 103.711174 68.168806 103.851799 66.267764 103.851799 64.106305 L 103.851799 48.085471 C 103.851799 46.210471 103.159091 44.700054 101.778883 43.559429 C 100.393466 42.413595 98.627841 41.840679 96.476799 41.840679 C 95.25284 41.840679 94.028882 42.05422 92.804924 42.476095 C 91.591382 42.887554 90.237215 43.564637 88.742423 44.502137 L 88.742423 64.106305 C 88.742423 66.267764 88.87784 68.168806 89.153882 69.804222 C 89.435132 71.439639 89.955965 73.168806 90.711173 75.002139 Z M 127.383051 18.444844 C 128.924718 18.444844 130.237218 18.996927 131.310134 20.090677 C 132.38826 21.189636 132.924718 22.512553 132.924718 24.054219 C 132.924718 25.611511 132.38826 26.934428 131.310134 28.033386 C 130.237218 29.132345 128.924718 29.67922 127.383051 29.67922 C 125.794509 29.67922 124.445551 29.132345 123.336176 28.033386 C 122.237217 26.934428 121.690342 25.611511 121.690342 24.054219 C 121.690342 22.512553 122.237217 21.189636 123.336176 20.090677 C 124.445551 18.996927 125.794509 18.444844 127.383051 18.444844 Z M 133.284093 35.017762 C 132.528885 36.845887 132.008051 38.58547 131.721593 40.231304 C 131.450759 41.86672 131.310134 43.757346 131.310134 45.908387 L 131.310134 64.106305 C 131.310134 66.267764 131.450759 68.168806 131.721593 69.804222 C 132.008051 71.439639 132.528885 73.168806 133.284093 75.002139 L 121.4143 75.002139 C 122.112217 73.168806 122.596592 71.424014 122.872634 69.767764 C 123.159092 68.101097 123.299717 66.210472 123.299717 64.106305 L 123.299717 45.908387 C 123.299717 43.804221 123.159092 41.924012 122.872634 40.262554 C 122.596592 38.595887 122.112217 36.845887 121.4143 35.017762 Z M 159.138261 34.39797 C 162.742428 34.39797 165.961178 35.194845 168.79972 36.783387 C 171.633054 38.371929 173.857012 40.694845 175.471596 43.746929 C 177.080971 46.788596 177.888263 50.413596 177.888263 54.62193 C 177.888263 58.554222 176.961179 62.116722 175.112221 65.30943 C 173.268471 68.486514 170.846595 70.981306 167.836179 72.788597 C 164.841387 74.595889 161.70597 75.496931 158.435136 75.496931 C 155.153886 75.496931 152.107011 74.793806 149.294511 73.387556 C 146.48201 71.981306 144.205969 69.804222 142.466385 66.851097 C 140.742427 63.90318 139.877843 60.24693 139.877843 55.892763 C 139.877843 51.674013 140.804927 47.924013 142.653885 44.653179 C 144.508052 41.371929 146.91951 38.845887 149.893469 37.075053 C 152.867428 35.288595 155.950761 34.39797 159.138261 34.39797 Z M 158.216386 40.075054 C 156.487219 40.075054 154.919511 40.632345 153.513261 41.74172 C 152.107011 42.835471 150.992427 44.455262 150.169511 46.595887 C 149.357011 48.720888 148.950761 51.257346 148.950761 54.210471 C 148.950761 57.158388 149.445552 59.783388 150.424719 62.085472 C 151.409094 64.37193 152.732011 66.194847 154.388261 67.554222 C 156.060136 68.918806 157.898678 69.710472 159.914303 69.939639 C 162.48722 69.564639 164.61222 68.064639 166.294512 65.444847 C 167.98722 62.825055 168.83097 59.455263 168.83097 55.325055 C 168.83097 52.418804 168.351804 49.814638 167.39347 47.502137 C 166.429928 45.179221 165.138262 43.361512 163.513262 42.049012 C 161.903886 40.731304 160.138261 40.075054 158.216386 40.075054 Z M 184.497638 75.002139 C 185.195555 73.168806 185.67993 71.424014 185.955971 69.767764 C 186.24243 68.101097 186.383055 66.210472 186.383055 64.106305 L 186.383055 45.840679 C 186.383055 43.736512 186.263263 41.86672 186.02368 40.231304 C 185.794513 38.58547 185.377846 36.845887 184.77368 35.017762 L 194.825764 35.017762 C 194.539305 36.61672 194.393472 38.351095 194.393472 40.21047 L 194.393472 44.366721 C 196.455972 40.715679 198.377847 38.163595 200.159097 36.715678 C 201.945556 35.262553 203.935139 34.533387 206.127848 34.533387 C 207.304931 34.533387 208.289306 34.694845 209.080973 35.017762 L 208.034098 44.793804 C 205.872639 43.476096 203.997639 42.819846 202.409097 42.819846 C 199.455972 42.819846 196.784097 44.205262 194.393472 46.970887 L 194.393472 64.106305 C 194.393472 66.267764 194.534097 68.168806 194.810139 69.804222 C 195.091389 71.439639 195.612222 73.168806 196.36743 75.002139 Z M 213.929932 75.002139 C 214.726807 72.470889 215.299723 69.955264 215.643473 67.450055 C 215.99764 64.950055 216.174723 61.955263 216.174723 58.481305 L 216.174723 33.970887 C 216.174723 30.502136 215.99764 27.517761 215.643473 25.017761 C 215.299723 22.512553 214.726807 19.991719 213.929932 17.450052 L 226.794516 17.450052 C 225.992432 19.991719 225.414307 22.512553 225.060141 25.017761 C 224.705974 27.517761 224.528891 30.502136 224.528891 33.970887 L 224.528891 58.481305 C 224.528891 61.955263 224.705974 64.950055 225.060141 67.450055 C 225.414307 69.955264 225.992432 72.470889 226.794516 75.002139 Z M 235.289308 75.002139 C 235.987225 73.168806 236.4716 71.424014 236.747641 69.767764 C 237.0341 68.101097 237.174725 66.210472 237.174725 64.106305 L 237.174725 45.840679 C 237.174725 43.736512 237.054933 41.86672 236.81535 40.231304 C 236.586183 38.58547 236.169516 36.845887 235.56535 35.017762 L 245.617434 35.017762 C 245.330975 36.61672 245.185142 38.351095 245.185142 40.21047 L 245.185142 42.325054 L 251.518476 35.64797 C 253.195559 34.814637 255.232018 34.39797 257.622643 34.39797 C 260.66431 34.39797 263.205976 35.403178 265.237227 37.418804 C 267.284102 39.42922 268.310143 42.33547 268.310143 46.132346 L 268.310143 64.106305 C 268.310143 66.210472 268.44556 68.101097 268.721602 69.767764 C 269.00806 71.424014 269.497644 73.168806 270.19556 75.002139 L 258.325768 75.002139 C 259.080976 73.168806 259.596601 71.439639 259.872643 69.804222 C 260.153893 68.168806 260.299726 66.267764 260.299726 64.106305 L 260.299726 48.085471 C 260.299726 46.210471 259.607018 44.700054 258.221601 43.559429 C 256.841393 42.413595 255.070559 41.840679 252.924726 41.840679 C 251.700767 41.840679 250.476809 42.05422 249.252851 42.476095 C 248.039309 42.887554 246.685142 43.564637 245.185142 44.502137 L 245.185142 64.106305 C 245.185142 66.267764 245.325767 68.168806 245.5966 69.804222 C 245.883059 71.439639 246.403892 73.168806 247.1591 75.002139 Z M 309.044521 35.017762 L 309.044521 35.236512 C 307.924729 36.783387 307.034104 38.257345 306.372646 39.663595 C 305.716396 41.069845 304.945563 43.153179 304.054937 45.908387 L 294.429937 75.002139 L 286.216395 75.002139 L 277.862227 47.179221 C 277.060144 44.647971 276.200769 42.424012 275.289311 40.502137 C 274.372644 38.58547 273.28931 36.830262 272.028894 35.236512 L 272.028894 35.017762 L 285.101811 35.017762 C 284.721603 36.24172 284.534103 37.533387 284.534103 38.892762 C 284.534103 39.830262 284.612228 40.767762 284.773686 41.705262 C 284.935145 42.632346 285.247645 43.892762 285.716395 45.496929 L 291.549728 65.085472 L 298.221604 45.069846 C 298.976812 42.767762 299.35702 40.543804 299.35702 38.392762 C 299.35702 37.226095 299.190354 36.101095 298.85702 35.017762 Z M 341.857023 50.262554 C 341.857023 52.095888 341.789315 53.569846 341.64869 54.689638 L 319.232022 55.325055 C 319.42473 59.96568 320.596605 63.319847 322.747647 65.377139 C 324.898689 67.43443 327.633064 68.465681 330.961189 68.465681 C 332.554939 68.465681 334.143481 68.174014 335.732023 67.59068 C 337.330981 67.007347 339.138273 66.012555 341.153898 64.606305 L 341.289315 64.741722 L 338.560148 73.522973 C 335.747648 74.840681 332.653898 75.496931 329.284106 75.496931 C 323.42473 75.496931 318.846605 73.809431 315.544522 70.439639 C 312.23723 67.064639 310.586188 62.069847 310.586188 55.460471 C 310.586188 51.012554 311.357021 47.210471 312.898688 44.054221 C 314.45598 40.887554 316.565355 38.486512 319.232022 36.851095 C 321.903897 35.215678 324.857022 34.39797 328.080981 34.39797 C 332.575773 34.39797 335.99244 35.80422 338.341398 38.61672 C 340.685148 41.418804 341.857023 45.304221 341.857023 50.262554 Z M 335.112231 50.262554 C 335.112231 46.845887 334.445564 44.252137 333.107023 42.476095 C 331.768481 40.694845 329.815356 39.799012 327.242439 39.799012 C 322.607022 39.799012 319.961189 43.288596 319.29973 50.262554 Z M 357.174733 75.496931 C 355.299732 75.496931 353.596607 75.377139 352.065357 75.137556 C 350.544524 74.908389 348.825774 74.538598 346.919524 74.022973 L 347.39869 62.908389 L 347.622649 62.908389 C 349.21119 65.580264 350.669524 67.444847 351.997649 68.496931 C 353.330982 69.549014 354.940357 70.075056 356.815358 70.075056 C 358.554941 70.075056 359.872649 69.658389 360.7789 68.825056 C 361.690358 67.976097 362.148691 66.762555 362.148691 65.168805 C 362.148691 63.720889 361.7164 62.46568 360.846608 61.413597 C 359.987233 60.351097 358.273691 59.002138 355.700774 57.366721 C 352.888274 55.538596 350.924732 53.736513 349.815357 51.965679 C 348.721607 50.179221 348.169524 48.116721 348.169524 45.772971 C 348.169524 43.621929 348.721607 41.684429 349.815357 39.955262 C 350.924732 38.215679 352.476816 36.856303 354.466399 35.871928 C 356.455983 34.887553 358.737233 34.39797 361.31015 34.39797 C 364.075775 34.39797 366.679942 34.793803 369.112233 35.580262 L 369.112233 43.179221 L 368.909108 43.179221 C 367.409108 41.913595 366.070567 41.017762 364.893483 40.502137 C 363.726816 39.99172 362.508066 39.731304 361.242441 39.731304 C 359.653899 39.731304 358.424733 40.121929 357.554941 40.89797 C 356.685149 41.663595 356.247649 42.731304 356.247649 44.090679 C 356.247649 45.543804 356.705983 46.814637 357.622649 47.913596 C 358.534108 49.012554 360.143483 50.262554 362.440358 51.674013 C 365.299733 53.408388 367.336192 55.18443 368.549733 56.986513 C 369.773692 58.783388 370.383067 60.924013 370.383067 63.40318 C 370.383067 67.24693 369.138275 70.226097 366.643483 72.340681 C 364.164316 74.444848 361.008066 75.496931 357.174733 75.496931 Z M 387.169526 35.017762 L 398.200777 35.017762 L 398.200777 40.299012 L 387.169526 40.299012 L 387.169526 64.106305 C 387.169526 65.892764 387.575776 67.174014 388.388276 67.950056 C 389.211193 68.715681 390.492443 69.101097 392.232027 69.101097 C 394.289318 69.101097 396.580985 68.700056 399.112235 67.897972 L 399.247652 68.033389 L 394.40911 74.793806 C 392.247652 75.215681 390.372651 75.429223 388.78411 75.429223 C 385.409109 75.429223 382.961193 74.705264 381.440359 73.252139 C 379.919526 71.799014 379.159109 69.408389 379.159109 66.080264 L 379.159109 40.299012 L 374.034109 40.299012 L 374.034109 40.007345 L 386.87786 26.387553 L 387.169526 26.387553 Z M 387.169526 35.017762 " stroke="#ffffff" stroke-width="12.471664" stroke-opacity="1" stroke-miterlimit="4"/><g fill="#000000" fill-opacity="1"><g transform="translate(37.533031, 325.521833)"><g><path d="M 12.015625 0.53125 C 8.640625 0.53125 5.597656 -0.03125 2.890625 -1.15625 L 2.890625 -9.90625 L 3.109375 -9.90625 C 4.929688 -7.800781 6.523438 -6.34375 7.890625 -5.53125 C 9.265625 -4.726562 10.847656 -4.328125 12.640625 -4.328125 C 14.535156 -4.328125 16.132812 -4.929688 17.4375 -6.140625 C 18.738281 -7.347656 19.390625 -8.867188 19.390625 -10.703125 C 19.390625 -11.710938 19.148438 -12.640625 18.671875 -13.484375 C 18.203125 -14.328125 17.378906 -15.195312 16.203125 -16.09375 C 15.023438 -16.988281 13.347656 -18.050781 11.171875 -19.28125 C 8.046875 -21.039062 5.84375 -22.84375 4.5625 -24.6875 C 3.28125 -26.53125 2.640625 -28.769531 2.640625 -31.40625 C 2.640625 -33.476562 3.191406 -35.460938 4.296875 -37.359375 C 5.398438 -39.253906 6.953125 -40.78125 8.953125 -41.9375 C 10.953125 -43.09375 13.21875 -43.671875 15.75 -43.671875 C 18.695312 -43.671875 21.4375 -43.039062 23.96875 -41.78125 L 23.96875 -35.25 L 23.8125 -35.1875 C 22.375 -36.457031 21.03125 -37.335938 19.78125 -37.828125 C 18.53125 -38.316406 17.1875 -38.5625 15.75 -38.5625 C 14.382812 -38.5625 13.191406 -38.28125 12.171875 -37.71875 C 11.148438 -37.15625 10.367188 -36.410156 9.828125 -35.484375 C 9.285156 -34.554688 9.015625 -33.566406 9.015625 -32.515625 C 9.015625 -30.890625 9.582031 -29.421875 10.71875 -28.109375 C 11.863281 -26.796875 13.894531 -25.328125 16.8125 -23.703125 C 19.125 -22.410156 20.945312 -21.21875 22.28125 -20.125 C 23.613281 -19.039062 24.601562 -17.828125 25.25 -16.484375 C 25.90625 -15.148438 26.234375 -13.570312 26.234375 -11.75 C 26.234375 -9.21875 25.597656 -7.019531 24.328125 -5.15625 C 23.066406 -3.300781 21.359375 -1.890625 19.203125 -0.921875 C 17.046875 0.046875 14.648438 0.53125 12.015625 0.53125 Z M 12.015625 0.53125 "/></g></g></g><g fill="#000000" fill-opacity="1"><g transform="translate(66.405797, 325.521833)"><g><path d="M 25.296875 -18.546875 C 25.296875 -17.171875 25.238281 -16.066406 25.125 -15.234375 L 8.328125 -14.75 C 8.460938 -11.269531 9.335938 -8.757812 10.953125 -7.21875 C 12.566406 -5.675781 14.625 -4.90625 17.125 -4.90625 C 18.320312 -4.90625 19.515625 -5.125 20.703125 -5.5625 C 21.898438 -6 23.253906 -6.742188 24.765625 -7.796875 L 24.875 -7.6875 L 22.8125 -1.109375 C 20.707031 -0.117188 18.390625 0.375 15.859375 0.375 C 11.460938 0.375 8.023438 -0.890625 5.546875 -3.421875 C 3.078125 -5.953125 1.84375 -9.691406 1.84375 -14.640625 C 1.84375 -17.984375 2.421875 -20.835938 3.578125 -23.203125 C 4.742188 -25.578125 6.328125 -27.378906 8.328125 -28.609375 C 10.328125 -29.835938 12.539062 -30.453125 14.96875 -30.453125 C 18.332031 -30.453125 20.894531 -29.394531 22.65625 -27.28125 C 24.414062 -25.175781 25.296875 -22.265625 25.296875 -18.546875 Z M 20.234375 -18.546875 C 20.234375 -21.109375 19.734375 -23.054688 18.734375 -24.390625 C 17.734375 -25.722656 16.265625 -26.390625 14.328125 -26.390625 C 10.847656 -26.390625 8.863281 -23.773438 8.375 -18.546875 Z M 17.5 -43 C 18.269531 -39.34375 19.671875 -36.125 21.703125 -33.34375 L 19.234375 -33.34375 C 17.015625 -34.96875 15.171875 -36.921875 13.703125 -39.203125 C 12.222656 -36.921875 10.378906 -34.96875 8.171875 -33.34375 L 5.6875 -33.34375 C 7.800781 -36.195312 9.222656 -39.414062 9.953125 -43 Z M 17.5 -43 "/></g></g></g><g fill="#000000" fill-opacity="1"><g transform="translate(93.539875, 325.521833)"><g><path d="M 3.109375 0 C 3.640625 -1.375 4.007812 -2.679688 4.21875 -3.921875 C 4.425781 -5.171875 4.53125 -6.585938 4.53125 -8.171875 L 4.53125 -21.859375 C 4.53125 -23.441406 4.441406 -24.847656 4.265625 -26.078125 C 4.085938 -27.304688 3.769531 -28.609375 3.3125 -29.984375 L 10.859375 -29.984375 C 10.640625 -28.785156 10.53125 -27.484375 10.53125 -26.078125 L 10.53125 -24.5 L 15.28125 -29.5 C 16.539062 -30.132812 18.066406 -30.453125 19.859375 -30.453125 C 22.140625 -30.453125 24.046875 -29.695312 25.578125 -28.1875 C 27.109375 -26.675781 27.875 -24.5 27.875 -21.65625 L 27.875 -8.171875 C 27.875 -6.585938 27.976562 -5.171875 28.1875 -3.921875 C 28.394531 -2.679688 28.765625 -1.375 29.296875 0 L 20.390625 0 C 20.953125 -1.375 21.335938 -2.675781 21.546875 -3.90625 C 21.753906 -5.132812 21.859375 -6.554688 21.859375 -8.171875 L 21.859375 -20.171875 C 21.859375 -21.578125 21.335938 -22.710938 20.296875 -23.578125 C 19.265625 -24.441406 17.941406 -24.875 16.328125 -24.875 C 15.421875 -24.875 14.507812 -24.710938 13.59375 -24.390625 C 12.675781 -24.078125 11.65625 -23.566406 10.53125 -22.859375 L 10.53125 -8.171875 C 10.53125 -6.554688 10.632812 -5.132812 10.84375 -3.90625 C 11.0625 -2.675781 11.453125 -1.375 12.015625 0 Z M 3.109375 0 "/></g></g></g><g fill="#000000" fill-opacity="1"><g transform="translate(125.468511, 325.521833)"><g><path d="M 7.59375 -42.40625 C 8.75 -42.40625 9.726562 -41.992188 10.53125 -41.171875 C 11.34375 -40.347656 11.75 -39.359375 11.75 -38.203125 C 11.75 -37.035156 11.34375 -36.039062 10.53125 -35.21875 C 9.726562 -34.394531 8.75 -33.984375 7.59375 -33.984375 C 6.394531 -33.984375 5.378906 -34.394531 4.546875 -35.21875 C 3.722656 -36.039062 3.3125 -37.035156 3.3125 -38.203125 C 3.3125 -39.359375 3.722656 -40.347656 4.546875 -41.171875 C 5.378906 -41.992188 6.394531 -42.40625 7.59375 -42.40625 Z M 12.015625 -29.984375 C 11.453125 -28.609375 11.0625 -27.304688 10.84375 -26.078125 C 10.632812 -24.847656 10.53125 -23.425781 10.53125 -21.8125 L 10.53125 -8.171875 C 10.53125 -6.554688 10.632812 -5.132812 10.84375 -3.90625 C 11.0625 -2.675781 11.453125 -1.375 12.015625 0 L 3.109375 0 C 3.640625 -1.375 4.007812 -2.679688 4.21875 -3.921875 C 4.425781 -5.171875 4.53125 -6.585938 4.53125 -8.171875 L 4.53125 -21.8125 C 4.53125 -23.394531 4.425781 -24.804688 4.21875 -26.046875 C 4.007812 -27.296875 3.640625 -28.609375 3.109375 -29.984375 Z M 12.015625 -29.984375 "/></g></g></g><g fill="#000000" fill-opacity="1"><g transform="translate(140.589829, 325.521833)"><g><path d="M 16.28125 -30.453125 C 18.988281 -30.453125 21.40625 -29.851562 23.53125 -28.65625 C 25.65625 -27.46875 27.320312 -25.726562 28.53125 -23.4375 C 29.738281 -21.15625 30.34375 -18.4375 30.34375 -15.28125 C 30.34375 -12.332031 29.648438 -9.660156 28.265625 -7.265625 C 26.878906 -4.878906 25.0625 -3.007812 22.8125 -1.65625 C 20.5625 -0.300781 18.207031 0.375 15.75 0.375 C 13.289062 0.375 11.007812 -0.148438 8.90625 -1.203125 C 6.800781 -2.265625 5.097656 -3.898438 3.796875 -6.109375 C 2.492188 -8.328125 1.84375 -11.066406 1.84375 -14.328125 C 1.84375 -17.492188 2.535156 -20.304688 3.921875 -22.765625 C 5.304688 -25.222656 7.113281 -27.117188 9.34375 -28.453125 C 11.582031 -29.785156 13.894531 -30.453125 16.28125 -30.453125 Z M 15.59375 -26.1875 C 14.289062 -26.1875 13.113281 -25.769531 12.0625 -24.9375 C 11.007812 -24.113281 10.175781 -22.90625 9.5625 -21.3125 C 8.945312 -19.71875 8.640625 -17.8125 8.640625 -15.59375 C 8.640625 -13.382812 9.007812 -11.414062 9.75 -9.6875 C 10.488281 -7.96875 11.476562 -6.597656 12.71875 -5.578125 C 13.96875 -4.566406 15.347656 -3.972656 16.859375 -3.796875 C 18.785156 -4.078125 20.378906 -5.195312 21.640625 -7.15625 C 22.910156 -9.125 23.546875 -11.65625 23.546875 -14.75 C 23.546875 -16.925781 23.1875 -18.882812 22.46875 -20.625 C 21.75 -22.363281 20.78125 -23.722656 19.5625 -24.703125 C 18.351562 -25.691406 17.03125 -26.1875 15.59375 -26.1875 Z M 15.59375 -26.1875 "/></g></g></g><g fill="#000000" fill-opacity="1"><g transform="translate(172.781908, 325.521833)"><g><path d="M 3.109375 0 C 3.640625 -1.375 4.007812 -2.679688 4.21875 -3.921875 C 4.425781 -5.171875 4.53125 -6.585938 4.53125 -8.171875 L 4.53125 -21.859375 C 4.53125 -23.441406 4.441406 -24.847656 4.265625 -26.078125 C 4.085938 -27.304688 3.769531 -28.609375 3.3125 -29.984375 L 10.859375 -29.984375 C 10.640625 -28.785156 10.53125 -27.484375 10.53125 -26.078125 L 10.53125 -22.96875 C 12.082031 -25.707031 13.523438 -27.617188 14.859375 -28.703125 C 16.191406 -29.796875 17.6875 -30.34375 19.34375 -30.34375 C 20.21875 -30.34375 20.953125 -30.222656 21.546875 -29.984375 L 20.765625 -22.65625 C 19.140625 -23.632812 17.734375 -24.125 16.546875 -24.125 C 14.328125 -24.125 12.320312 -23.085938 10.53125 -21.015625 L 10.53125 -8.171875 C 10.53125 -6.554688 10.632812 -5.132812 10.84375 -3.90625 C 11.0625 -2.675781 11.453125 -1.375 12.015625 0 Z M 3.109375 0 "/></g></g></g><g fill="#000000" fill-opacity="1"><g transform="translate(194.699917, 325.521833)"><g><path d="M 3.265625 0 C 3.859375 -1.894531 4.285156 -3.78125 4.546875 -5.65625 C 4.816406 -7.539062 4.953125 -9.78125 4.953125 -12.375 L 4.953125 -30.765625 C 4.953125 -33.367188 4.816406 -35.609375 4.546875 -37.484375 C 4.285156 -39.367188 3.859375 -41.257812 3.265625 -43.15625 L 12.90625 -43.15625 C 12.3125 -41.257812 11.878906 -39.367188 11.609375 -37.484375 C 11.347656 -35.609375 11.21875 -33.367188 11.21875 -30.765625 L 11.21875 -12.375 C 11.21875 -9.78125 11.347656 -7.539062 11.609375 -5.65625 C 11.878906 -3.78125 12.3125 -1.894531 12.90625 0 Z M 3.265625 0 "/></g></g></g><g fill="#000000" fill-opacity="1"><g transform="translate(210.874983, 325.521833)"><g><path d="M 3.109375 0 C 3.640625 -1.375 4.007812 -2.679688 4.21875 -3.921875 C 4.425781 -5.171875 4.53125 -6.585938 4.53125 -8.171875 L 4.53125 -21.859375 C 4.53125 -23.441406 4.441406 -24.847656 4.265625 -26.078125 C 4.085938 -27.304688 3.769531 -28.609375 3.3125 -29.984375 L 10.859375 -29.984375 C 10.640625 -28.785156 10.53125 -27.484375 10.53125 -26.078125 L 10.53125 -24.5 L 15.28125 -29.5 C 16.539062 -30.132812 18.066406 -30.453125 19.859375 -30.453125 C 22.140625 -30.453125 24.046875 -29.695312 25.578125 -28.1875 C 27.109375 -26.675781 27.875 -24.5 27.875 -21.65625 L 27.875 -8.171875 C 27.875 -6.585938 27.976562 -5.171875 28.1875 -3.921875 C 28.394531 -2.679688 28.765625 -1.375 29.296875 0 L 20.390625 0 C 20.953125 -1.375 21.335938 -2.675781 21.546875 -3.90625 C 21.753906 -5.132812 21.859375 -6.554688 21.859375 -8.171875 L 21.859375 -20.171875 C 21.859375 -21.578125 21.335938 -22.710938 20.296875 -23.578125 C 19.265625 -24.441406 17.941406 -24.875 16.328125 -24.875 C 15.421875 -24.875 14.507812 -24.710938 13.59375 -24.390625 C 12.675781 -24.078125 11.65625 -23.566406 10.53125 -22.859375 L 10.53125 -8.171875 C 10.53125 -6.554688 10.632812 -5.132812 10.84375 -3.90625 C 11.0625 -2.675781 11.453125 -1.375 12.015625 0 Z M 3.109375 0 "/></g></g></g><g fill="#000000" fill-opacity="1"><g transform="translate(242.276653, 325.521833)"><g><path d="M 27.03125 -29.984375 L 27.03125 -29.828125 C 26.1875 -28.660156 25.515625 -27.550781 25.015625 -26.5 C 24.523438 -25.445312 23.945312 -23.882812 23.28125 -21.8125 L 16.0625 0 L 9.90625 0 L 3.640625 -20.859375 C 3.035156 -22.753906 2.390625 -24.421875 1.703125 -25.859375 C 1.023438 -27.304688 0.210938 -28.628906 -0.734375 -29.828125 L -0.734375 -29.984375 L 9.0625 -29.984375 C 8.78125 -29.066406 8.640625 -28.097656 8.640625 -27.078125 C 8.640625 -26.378906 8.703125 -25.675781 8.828125 -24.96875 C 8.953125 -24.269531 9.1875 -23.320312 9.53125 -22.125 L 13.90625 -7.421875 L 18.921875 -22.4375 C 19.472656 -24.164062 19.75 -25.835938 19.75 -27.453125 C 19.75 -28.328125 19.628906 -29.171875 19.390625 -29.984375 Z M 27.03125 -29.984375 "/></g></g></g><g fill="#000000" fill-opacity="1"><g transform="translate(268.620402, 325.521833)"><g><path d="M 25.296875 -18.546875 C 25.296875 -17.171875 25.238281 -16.066406 25.125 -15.234375 L 8.328125 -14.75 C 8.460938 -11.269531 9.335938 -8.757812 10.953125 -7.21875 C 12.566406 -5.675781 14.625 -4.90625 17.125 -4.90625 C 18.320312 -4.90625 19.515625 -5.125 20.703125 -5.5625 C 21.898438 -6 23.253906 -6.742188 24.765625 -7.796875 L 24.875 -7.6875 L 22.8125 -1.109375 C 20.707031 -0.117188 18.390625 0.375 15.859375 0.375 C 11.460938 0.375 8.023438 -0.890625 5.546875 -3.421875 C 3.078125 -5.953125 1.84375 -9.691406 1.84375 -14.640625 C 1.84375 -17.984375 2.421875 -20.835938 3.578125 -23.203125 C 4.742188 -25.578125 6.328125 -27.378906 8.328125 -28.609375 C 10.328125 -29.835938 12.539062 -30.453125 14.96875 -30.453125 C 18.332031 -30.453125 20.894531 -29.394531 22.65625 -27.28125 C 24.414062 -25.175781 25.296875 -22.265625 25.296875 -18.546875 Z M 20.234375 -18.546875 C 20.234375 -21.109375 19.734375 -23.054688 18.734375 -24.390625 C 17.734375 -25.722656 16.265625 -26.390625 14.328125 -26.390625 C 10.847656 -26.390625 8.863281 -23.773438 8.375 -18.546875 Z M 20.234375 -18.546875 "/></g></g></g><g fill="#000000" fill-opacity="1"><g transform="translate(295.754479, 325.521833)"><g><path d="M 9.640625 0.375 C 8.234375 0.375 6.957031 0.285156 5.8125 0.109375 C 4.675781 -0.0664062 3.390625 -0.347656 1.953125 -0.734375 L 2.3125 -9.0625 L 2.46875 -9.0625 C 3.664062 -7.0625 4.765625 -5.664062 5.765625 -4.875 C 6.765625 -4.082031 7.96875 -3.6875 9.375 -3.6875 C 10.675781 -3.6875 11.664062 -4 12.34375 -4.625 C 13.03125 -5.257812 13.375 -6.175781 13.375 -7.375 C 13.375 -8.46875 13.050781 -9.40625 12.40625 -10.1875 C 11.757812 -10.976562 10.46875 -11.988281 8.53125 -13.21875 C 6.425781 -14.59375 4.957031 -15.945312 4.125 -17.28125 C 3.300781 -18.613281 2.890625 -20.160156 2.890625 -21.921875 C 2.890625 -23.535156 3.300781 -24.988281 4.125 -26.28125 C 4.957031 -27.582031 6.117188 -28.601562 7.609375 -29.34375 C 9.109375 -30.082031 10.820312 -30.453125 12.75 -30.453125 C 14.820312 -30.453125 16.769531 -30.15625 18.59375 -29.5625 L 18.59375 -23.875 L 18.4375 -23.875 C 17.3125 -24.820312 16.3125 -25.488281 15.4375 -25.875 C 14.5625 -26.257812 13.648438 -26.453125 12.703125 -26.453125 C 11.503906 -26.453125 10.578125 -26.160156 9.921875 -25.578125 C 9.273438 -24.992188 8.953125 -24.195312 8.953125 -23.1875 C 8.953125 -22.09375 9.296875 -21.132812 9.984375 -20.3125 C 10.671875 -19.488281 11.875 -18.550781 13.59375 -17.5 C 15.738281 -16.195312 17.265625 -14.867188 18.171875 -13.515625 C 19.085938 -12.160156 19.546875 -10.550781 19.546875 -8.6875 C 19.546875 -5.8125 18.613281 -3.582031 16.75 -2 C 14.894531 -0.414062 12.523438 0.375 9.640625 0.375 Z M 9.640625 0.375 "/></g></g></g><g fill="#000000" fill-opacity="1"><g transform="translate(317.092925, 325.521833)"><g><path d="M 10.796875 -29.984375 L 19.078125 -29.984375 L 19.078125 -26.03125 L 10.796875 -26.03125 L 10.796875 -8.171875 C 10.796875 -6.835938 11.101562 -5.878906 11.71875 -5.296875 C 12.332031 -4.710938 13.289062 -4.421875 14.59375 -4.421875 C 16.132812 -4.421875 17.851562 -4.722656 19.75 -5.328125 L 19.859375 -5.21875 L 16.234375 -0.15625 C 14.609375 0.15625 13.203125 0.3125 12.015625 0.3125 C 9.484375 0.3125 7.644531 -0.226562 6.5 -1.3125 C 5.363281 -2.40625 4.796875 -4.195312 4.796875 -6.6875 L 4.796875 -26.03125 L 0.953125 -26.03125 L 0.953125 -26.234375 L 10.59375 -36.453125 L 10.796875 -36.453125 Z M 10.796875 -29.984375 "/></g></g></g></svg>